<svg width="131" height="28" viewBox="0 0 131 28" fill="none" xmlns="http://www.w3.org/2000/svg">
<path d="M26.9193 27.4183L26.9252 0.564087L0.48442 5.56161L0.463298 22.6336L26.9193 27.4183ZM1.51367 6.57759C1.38736 6.59925 1.26709 6.51624 1.24504 6.39217C1.22299 6.2681 1.3075 6.14995 1.4338 6.12829L2.62176 5.92274C2.63083 11.3312 2.64004 16.7397 2.64927 22.1482L1.60794 21.9628C1.48214 21.9407 1.39844 21.8225 1.421 21.6989C1.44355 21.5753 1.56383 21.4931 1.68963 21.5153L2.18551 21.6036L2.15985 6.46578L1.51367 6.57759ZM3.54742 6.23641C3.42112 6.25808 3.30084 6.17506 3.27879 6.05099C3.25674 5.92692 3.34125 5.80877 3.46755 5.78711L4.69414 5.57496C4.70357 11.2017 4.713 16.8283 4.72259 22.455L3.65383 22.2636C3.52803 22.2415 3.44433 22.1233 3.46689 21.9998C3.48944 21.8762 3.60972 21.794 3.73552 21.8161L4.25884 21.9098L4.23222 6.11797L3.54742 6.23641ZM5.58118 5.89523C5.45488 5.91689 5.33461 5.83387 5.31256 5.7098C5.2905 5.58573 5.37501 5.46759 5.50131 5.44593L6.76653 5.22717C6.77613 11.0721 6.78598 16.9171 6.79593 22.762L5.69882 22.5645C5.57302 22.5418 5.48972 22.4233 5.51277 22.2997C5.53581 22.1761 5.6565 22.0943 5.7823 22.1169L6.33218 22.2159L6.3046 5.77015L5.58118 5.89523ZM7.61494 5.55405C7.48863 5.57571 7.36836 5.49269 7.34631 5.36862C7.32426 5.24455 7.40877 5.12641 7.53507 5.10475L8.83891 4.87938C8.84887 10.9425 8.85894 17.0056 8.86925 23.0688L7.7447 22.8653C7.6189 22.8427 7.53561 22.7241 7.55866 22.6005C7.58171 22.4769 7.70239 22.3951 7.82819 22.4178L8.4055 22.5222L8.37698 5.42233L7.61494 5.55405ZM9.64869 5.21287C9.52239 5.23453 9.40211 5.15152 9.38006 5.02745C9.35801 4.90338 9.44252 4.78523 9.56882 4.76357L10.9113 4.5316C10.9216 10.8129 10.9321 17.0942 10.9426 23.3755L9.79058 23.1661C9.66478 23.1435 9.58148 23.0249 9.60453 22.9014C9.62757 22.7778 9.74827 22.696 9.87407 22.7186L10.4788 22.8285L10.4493 5.07452L9.64869 5.21287ZM11.6825 4.87169C11.5561 4.89335 11.4359 4.81033 11.4138 4.68626C11.3918 4.56219 11.4763 4.44405 11.6026 4.42238L12.9837 4.18381L13.0159 23.6823L11.8365 23.467C11.7107 23.4443 11.6274 23.3258 11.6504 23.2022C11.6735 23.0786 11.7942 22.9968 11.92 23.0194L12.5522 23.1349L12.5217 4.7267L11.6825 4.87169ZM13.7162 4.5305C13.5899 4.55217 13.4696 4.46915 13.4476 4.34508C13.4255 4.22101 13.51 4.10286 13.6364 4.0812L15.056 3.83601C15.0671 10.5537 15.0781 17.2714 15.0892 23.9891L13.8824 23.7678C13.7566 23.7451 13.6733 23.6266 13.6963 23.503C13.7194 23.3794 13.84 23.2976 13.9658 23.3203L14.6255 23.4412L14.5941 4.37888L13.7162 4.5305ZM15.75 4.18932C15.6237 4.21099 15.5034 4.12797 15.4813 4.0039C15.4593 3.87983 15.5438 3.76168 15.6701 3.74002L17.1284 3.48823C17.1396 10.4241 17.151 17.36 17.1626 24.296L15.9273 24.0686C15.8015 24.0455 15.7187 23.9265 15.7422 23.803C15.7658 23.6794 15.8869 23.598 16.0127 23.6211L16.6988 23.7474L16.6665 4.03107L15.75 4.18932ZM17.7837 3.84814C17.6574 3.8698 17.5372 3.78679 17.5151 3.66272C17.4931 3.53865 17.5776 3.4205 17.7039 3.39884L19.2008 3.14044C19.2123 10.2945 19.224 17.4486 19.2359 24.6027L17.9732 24.3695C17.8474 24.3463 17.7645 24.2274 17.7881 24.1038C17.8116 23.9802 17.9327 23.8988 18.0585 23.9219L18.7722 24.0537L18.7389 3.68327L17.7837 3.84814ZM19.8175 3.50696C19.6912 3.52862 19.5709 3.44561 19.5489 3.32154C19.5268 3.19747 19.6113 3.07932 19.7376 3.05766L21.2732 2.79265C21.2851 10.1649 21.297 17.5371 21.3092 24.9094L20.0191 24.6703C19.8933 24.6471 19.8104 24.5282 19.834 24.4046C19.8575 24.281 19.9786 24.1996 20.1044 24.2227L20.8455 24.3601L20.8112 3.33546L19.8175 3.50696ZM21.8512 3.16578C21.7249 3.18744 21.6047 3.10443 21.5826 2.98036C21.5606 2.85629 21.6451 2.73814 21.7714 2.71648L23.3456 2.44485C23.358 10.0353 23.3702 17.6257 23.3825 25.2161L22.065 24.9711C21.9392 24.948 21.8563 24.829 21.8798 24.7054C21.9034 24.5819 22.0245 24.5004 22.1503 24.5236L22.9188 24.6665L22.8836 2.98764L21.8512 3.16578ZM23.885 2.8246C23.7587 2.84626 23.6384 2.76324 23.6164 2.63917C23.5943 2.5151 23.6788 2.39696 23.8051 2.37529L25.4179 2.09706C25.4308 9.90564 25.4434 17.7142 25.4558 25.5228L24.1109 25.2719C23.9851 25.2488 23.9022 25.1298 23.9257 25.0063C23.9493 24.8827 24.0704 24.8013 24.1962 24.8244L24.9921 24.9729L24.956 2.63983L23.885 2.8246ZM43.537 3.07305L37.0042 1.9578L36.9455 26.1708L43.5273 25.1248L43.537 3.07305ZM36.8124 1.46244L44 2.68946C43.9967 10.297 43.9936 17.9046 43.99 25.5121C41.4871 25.91 38.9843 26.3077 36.4814 26.7054C36.5019 18.2757 36.5224 9.84606 36.5426 1.41639L36.8124 1.46244ZM35.2772 26.465L35.2921 1.66367L28.6754 0.541037L28.6668 27.4696L35.2772 26.465ZM35.755 1.47169L35.7398 26.8548C33.2279 27.2366 30.7158 27.6183 28.2038 28C28.2071 18.6667 28.2099 9.33333 28.2128 -4.17233e-07L35.7552 1.2797L35.755 1.47169ZM27.3881 0.288334L27.382 27.9646C18.2546 26.314 9.12726 24.6635 -3.32265e-07 23.0125C0.00728544 17.07 0.0144303 11.1275 0.0220599 5.18501C9.14404 3.46059 18.2661 1.73657 27.3881 0.0125884L27.3881 0.288334Z" fill="#3035C6"/>
<path d="M52 20.7834V6H57.9076C58.9931 6 59.8984 6.16121 60.6237 6.48364C61.3489 6.80606 61.8941 7.25361 62.2591 7.82628C62.6241 8.39413 62.8066 9.0486 62.8066 9.7897C62.8066 10.3672 62.6913 10.8749 62.4608 11.3128C62.2303 11.7459 61.9133 12.102 61.5098 12.3811C61.1112 12.6554 60.6549 12.8503 60.141 12.9658V13.1102C60.7029 13.1343 61.2289 13.2931 61.7188 13.5866C62.2135 13.8802 62.6145 14.2916 62.9219 14.821C63.2293 15.3455 63.383 15.9711 63.383 16.6978C63.383 17.4822 63.1885 18.1824 62.7994 18.7984C62.4152 19.4095 61.846 19.8932 61.092 20.2493C60.3379 20.6054 59.4085 20.7834 58.3039 20.7834H52ZM55.1195 18.2281H57.6627C58.532 18.2281 59.166 18.0621 59.5646 17.73C59.9633 17.3932 60.1626 16.9456 60.1626 16.3874C60.1626 15.9783 60.0641 15.6174 59.8672 15.3046C59.6703 14.9918 59.3893 14.7464 59.0243 14.5683C58.6641 14.3903 58.2342 14.3013 57.7347 14.3013H55.1195V18.2281ZM55.1195 12.1862H57.4321C57.8596 12.1862 58.239 12.1116 58.5704 11.9625C58.9066 11.8085 59.1708 11.5919 59.3629 11.3128C59.5598 11.0337 59.6583 10.6992 59.6583 10.3094C59.6583 9.77526 59.4686 9.34456 59.0891 9.01732C58.7145 8.69009 58.1814 8.52647 57.4898 8.52647H55.1195V12.1862Z" fill="#3136C0"/>
<path d="M68.4243 6V20.7834H65.3552V6H68.4243Z" fill="#3136C0"/>
<path d="M77.9791 16.0626V9.69586H81.0482V20.7834H78.1016V18.7695H77.9863C77.7366 19.4192 77.3211 19.9413 76.74 20.3359C76.1636 20.7305 75.46 20.9278 74.6291 20.9278C73.8894 20.9278 73.2386 20.7594 72.6767 20.4225C72.1147 20.0857 71.6753 19.6068 71.3583 18.986C71.0461 18.3653 70.8876 17.6218 70.8828 16.7555V9.69586H73.9518V16.2069C73.9567 16.8614 74.132 17.3787 74.4778 17.7589C74.8236 18.1391 75.2871 18.3292 75.8682 18.3292C76.238 18.3292 76.5839 18.2449 76.9057 18.0765C77.2275 17.9033 77.4868 17.6482 77.6837 17.3114C77.8855 16.9745 77.9839 16.5582 77.9791 16.0626Z" fill="#3136C0"/>
<path d="M88.5462 21C87.4079 21 86.4281 20.769 85.6068 20.307C84.7903 19.8402 84.1611 19.1809 83.7192 18.3292C83.2774 17.4726 83.0564 16.4596 83.0564 15.2902C83.0564 14.1497 83.2774 13.1487 83.7192 12.2873C84.1611 11.4259 84.7831 10.7546 85.5852 10.2733C86.3921 9.79211 87.3382 9.55149 88.4237 9.55149C89.1538 9.55149 89.8334 9.66939 90.4626 9.9052C91.0966 10.1362 91.6489 10.4851 92.1196 10.9519C92.5951 11.4187 92.9649 12.0058 93.2291 12.7132C93.4932 13.4158 93.6253 14.2387 93.6253 15.1819V16.0265H84.2812V14.1208H90.7363C90.7363 13.6781 90.6403 13.2859 90.4482 12.9442C90.256 12.6025 89.9895 12.3354 89.6485 12.1429C89.3123 11.9456 88.9208 11.847 88.4741 11.847C88.0083 11.847 87.5952 11.9552 87.235 12.1718C86.8796 12.3835 86.601 12.6699 86.3993 13.0308C86.1976 13.3869 86.0943 13.7839 86.0895 14.2218V16.0337C86.0895 16.5823 86.1903 17.0563 86.3921 17.4557C86.5986 17.8551 86.8892 18.1631 87.2638 18.3797C87.6384 18.5962 88.0827 18.7045 88.5966 18.7045C88.9376 18.7045 89.2498 18.6564 89.5332 18.5602C89.8166 18.4639 90.0591 18.3195 90.2608 18.127C90.4626 17.9346 90.6163 17.6987 90.7219 17.4196L93.5605 17.6073C93.4164 18.2907 93.121 18.8874 92.6743 19.3975C92.2324 19.9028 91.6609 20.2974 90.9597 20.5813C90.2632 20.8604 89.4588 21 88.5462 21Z" fill="#3136C0"/>
<path d="M95.6858 20.7834V6H101.593C102.679 6 103.584 6.16121 104.309 6.48364C105.035 6.80606 105.58 7.25361 105.945 7.82628C106.31 8.39413 106.492 9.0486 106.492 9.7897C106.492 10.3672 106.377 10.8749 106.147 11.3128C105.916 11.7459 105.599 12.102 105.196 12.3811C104.797 12.6554 104.341 12.8503 103.827 12.9658V13.1102C104.389 13.1343 104.915 13.2931 105.405 13.5866C105.899 13.8802 106.3 14.2916 106.608 14.821C106.915 15.3455 107.069 15.9711 107.069 16.6978C107.069 17.4822 106.874 18.1824 106.485 18.7984C106.101 19.4095 105.532 19.8932 104.778 20.2493C104.024 20.6054 103.094 20.7834 101.99 20.7834H95.6858ZM98.8053 18.2281H101.348C102.218 18.2281 102.852 18.0621 103.25 17.73C103.649 17.3932 103.848 16.9456 103.848 16.3874C103.848 15.9783 103.75 15.6174 103.553 15.3046C103.356 14.9918 103.075 14.7464 102.71 14.5683C102.35 14.3903 101.92 14.3013 101.42 14.3013H98.8053V18.2281ZM98.8053 12.1862H101.118C101.545 12.1862 101.925 12.1116 102.256 11.9625C102.592 11.8085 102.857 11.5919 103.049 11.3128C103.246 11.0337 103.344 10.6992 103.344 10.3094C103.344 9.77526 103.154 9.34456 102.775 9.01732C102.4 8.69009 101.867 8.52647 101.176 8.52647H98.8053V12.1862Z" fill="#3136C0"/>
<path d="M114.041 21C112.922 21 111.954 20.7618 111.137 20.2854C110.326 19.8041 109.699 19.1352 109.257 18.2786C108.815 17.4172 108.594 16.4187 108.594 15.283C108.594 14.1376 108.815 13.1367 109.257 12.2801C109.699 11.4187 110.326 10.7498 111.137 10.2733C111.954 9.79211 112.922 9.55149 114.041 9.55149C115.16 9.55149 116.125 9.79211 116.937 10.2733C117.753 10.7498 118.383 11.4187 118.825 12.2801C119.266 13.1367 119.487 14.1376 119.487 15.283C119.487 16.4187 119.266 17.4172 118.825 18.2786C118.383 19.1352 117.753 19.8041 116.937 20.2854C116.125 20.7618 115.16 21 114.041 21ZM114.055 18.6179C114.564 18.6179 114.989 18.4735 115.33 18.1848C115.671 17.8912 115.928 17.4918 116.101 16.9865C116.279 16.4812 116.368 15.9062 116.368 15.2613C116.368 14.6165 116.279 14.0414 116.101 13.5361C115.928 13.0308 115.671 12.6314 115.33 12.3378C114.989 12.0443 114.564 11.8975 114.055 11.8975C113.541 11.8975 113.109 12.0443 112.758 12.3378C112.413 12.6314 112.151 13.0308 111.973 13.5361C111.8 14.0414 111.714 14.6165 111.714 15.2613C111.714 15.9062 111.8 16.4812 111.973 16.9865C112.151 17.4918 112.413 17.8912 112.758 18.1848C113.109 18.4735 113.541 18.6179 114.055 18.6179Z" fill="#3136C0"/>
<path d="M123.651 9.69586L125.683 13.5722L127.765 9.69586H130.914L127.708 15.2397L131 20.7834H127.866L125.683 16.9504L123.536 20.7834H120.366L123.651 15.2397L120.482 9.69586H123.651Z" fill="#3136C0"/>
</svg>
