<svg width="137" height="37" viewBox="0 0 137 37" fill="none" xmlns="http://www.w3.org/2000/svg">
<path d="M35.4845 36.2313L35.4923 0.745401L0.638553 7.34927L0.610711 29.9088L35.4845 36.2313ZM1.99529 8.69182C1.8288 8.72044 1.67026 8.61074 1.64119 8.44679C1.61212 8.28284 1.72352 8.12672 1.89001 8.0981L3.45596 7.82648C3.46792 14.9734 3.48005 22.1203 3.49222 29.2673L2.11956 29.0223C1.95374 28.993 1.8434 28.8369 1.87313 28.6736C1.90286 28.5103 2.06141 28.4016 2.22724 28.4309L2.8809 28.5476L2.84707 8.54407L1.99529 8.69182ZM4.67614 8.24097C4.50965 8.2696 4.35111 8.1599 4.32204 7.99595C4.29297 7.832 4.40438 7.67587 4.57086 7.64725L6.18773 7.36692C6.20016 14.8022 6.2126 22.2374 6.22524 29.6727L4.81642 29.4198C4.65059 29.3905 4.54025 29.2344 4.56999 29.0711C4.59972 28.9078 4.75827 28.7992 4.92409 28.8284L5.61393 28.9523L5.57883 8.08446L4.67614 8.24097ZM7.35701 7.79012C7.19052 7.81875 7.03198 7.70905 7.00292 7.5451C6.97385 7.38115 7.08524 7.22503 7.25173 7.1964L8.91952 6.90734C8.93217 14.631 8.94516 22.3547 8.95827 30.0783L7.51208 29.8173C7.34625 29.7874 7.23645 29.6308 7.26683 29.4675C7.29721 29.3042 7.4563 29.196 7.62213 29.226L8.34696 29.3568L8.31061 7.62484L7.35701 7.79012ZM10.0379 7.33928C9.87138 7.36791 9.71284 7.2582 9.68377 7.09425C9.6547 6.9303 9.7661 6.77418 9.93259 6.74556L11.6513 6.44775C11.6644 14.4597 11.6777 22.4717 11.6913 30.4837L10.2089 30.2149C10.0431 30.1849 9.93331 30.0283 9.96369 29.865C9.99407 29.7017 10.1532 29.5936 10.319 29.6235L11.08 29.7615L11.0424 7.16522L10.0379 7.33928ZM12.7187 6.88843C12.5522 6.91706 12.3937 6.80736 12.3646 6.64341C12.3356 6.47946 12.447 6.32334 12.6134 6.29471L14.383 5.98819C14.3967 14.2885 14.4105 22.5888 14.4243 30.8891L12.9058 30.6124C12.7399 30.5825 12.6301 30.4258 12.6605 30.2625C12.6909 30.0992 12.85 29.9911 13.0158 30.021L13.813 30.1663L13.7741 6.70561L12.7187 6.88843ZM15.3996 6.43759C15.2331 6.46621 15.0746 6.35651 15.0455 6.19256C15.0164 6.02861 15.1278 5.87249 15.2943 5.84386L17.1148 5.52861L17.1573 31.2945L15.6026 31.0099C15.4368 30.98 15.327 30.8233 15.3574 30.66C15.3878 30.4967 15.5468 30.3886 15.7127 30.4185L16.546 30.5711L16.5059 6.246L15.3996 6.43759ZM18.0805 5.98674C17.914 6.01536 17.7554 5.90566 17.7264 5.74171C17.6973 5.57777 17.8087 5.42164 17.9752 5.39302L19.8466 5.06901C19.8612 13.946 19.8756 22.8229 19.8903 31.6998L18.2995 31.4074C18.1336 31.3775 18.0238 31.2209 18.0542 31.0576C18.0846 30.8943 18.2437 30.7861 18.4095 30.8161L19.2791 30.9759L19.2377 5.78638L18.0805 5.98674ZM20.7613 5.53589C20.5948 5.56452 20.4363 5.45482 20.4072 5.29087C20.3782 5.12692 20.4896 4.9708 20.6561 4.94217L22.5784 4.60945C22.5931 13.7748 22.6082 22.9401 22.6234 32.1054L20.9951 31.805C20.8293 31.7744 20.72 31.6172 20.7511 31.4539C20.7821 31.2906 20.9418 31.183 21.1076 31.2136L22.0121 31.3805L21.9695 5.32678L20.7613 5.53589ZM23.4422 5.08504C23.2757 5.11367 23.1172 5.00397 23.0881 4.84002C23.059 4.67607 23.1704 4.51995 23.3369 4.49132L25.3102 4.14986C25.3253 13.6035 25.3407 23.0571 25.3564 32.5107L23.692 32.2025C23.5261 32.1719 23.4169 32.0147 23.4479 31.8514C23.479 31.6881 23.6386 31.5805 23.8044 31.6111L24.7451 31.7853L24.7012 4.86717L23.4422 5.08504ZM26.123 4.6342C25.9566 4.66282 25.798 4.55312 25.7689 4.38917C25.7399 4.22522 25.8513 4.0691 26.0178 4.04048L28.0419 3.69029C28.0576 13.4322 28.0733 23.1741 28.0894 32.916L26.3888 32.6C26.223 32.5694 26.1137 32.4122 26.1448 32.2489C26.1758 32.0856 26.3354 31.9781 26.5013 32.0086L27.4781 32.1901L27.433 4.40757L26.123 4.6342ZM28.8039 4.18335C28.6374 4.21198 28.4789 4.10228 28.4498 3.93833C28.4207 3.77438 28.5321 3.61826 28.6986 3.58963L30.7737 3.23069C30.7901 13.2609 30.8062 23.2911 30.8224 33.3213L29.0857 32.9975C28.9198 32.967 28.8106 32.8098 28.8416 32.6465C28.8727 32.4832 29.0323 32.3756 29.1981 32.4062L30.2112 32.595L30.1648 3.94796L28.8039 4.18335ZM31.4848 3.73251C31.3183 3.76113 31.1597 3.65143 31.1307 3.48748C31.1016 3.32353 31.213 3.16741 31.3795 3.13878L33.5055 2.77111C33.5224 13.0896 33.5391 23.4081 33.5554 33.7265L31.7825 33.3951C31.6167 33.3645 31.5074 33.2073 31.5385 33.044C31.5695 32.8807 31.7291 32.7731 31.895 32.8037L32.9442 32.9998L32.8965 3.48835L31.4848 3.73251ZM57.3897 4.06082L48.7782 2.58709L48.7009 34.5828L57.3769 33.2006L57.3897 4.06082ZM48.5255 1.93251L58 3.55393C57.9956 13.6068 57.9916 23.6596 57.9868 33.7124C54.6876 34.2382 51.3883 34.7638 48.0891 35.2893C48.1161 24.1501 48.1431 13.0109 48.1699 1.87165L48.5255 1.93251ZM46.5018 34.9716L46.5214 2.19843L37.7994 0.714942L37.7881 36.2991L46.5018 34.9716ZM47.1316 1.94473L47.1116 35.4867C43.8004 35.9912 40.4891 36.4956 37.1778 37C37.1821 24.6667 37.1858 12.3333 37.1896 -5.51343e-07L47.1318 1.69103L47.1316 1.94473ZM36.1025 0.381012L36.0944 36.9532C24.0629 34.7721 12.0314 32.5911 -6.02237e-07 30.4094C0.00960337 22.5568 0.0190216 14.7042 0.0290788 6.85162C12.0535 4.57292 24.078 2.29475 36.1026 0.0166346L36.1025 0.381012Z" fill="#3035C6"/>
<path d="M64 16.7979V3H69.4589C70.462 3 71.2986 3.15047 71.9687 3.4514C72.6389 3.75233 73.1426 4.17004 73.4799 4.70452C73.8172 5.23452 73.9859 5.84536 73.9859 6.53705C73.9859 7.07603 73.8793 7.54989 73.6663 7.95861C73.4533 8.36285 73.1604 8.69522 72.7876 8.95573C72.4192 9.21174 71.9976 9.39365 71.5227 9.50144V9.63619C72.042 9.65865 72.5279 9.80686 72.9806 10.0808C73.4378 10.3548 73.8083 10.7389 74.0924 11.2329C74.3764 11.7225 74.5184 12.3064 74.5184 12.9846C74.5184 13.7167 74.3387 14.3702 73.9792 14.9451C73.6242 15.5156 73.0982 15.967 72.4014 16.2993C71.7047 16.6317 70.8459 16.7979 69.8251 16.7979H64ZM66.8826 14.4129H69.2326C70.0359 14.4129 70.6217 14.2579 70.9901 13.948C71.3585 13.6336 71.5427 13.2159 71.5427 12.6949C71.5427 12.3131 71.4517 11.9763 71.2697 11.6843C71.0877 11.3924 70.8281 11.1633 70.4908 10.9971C70.158 10.8309 69.7607 10.7478 69.2992 10.7478H66.8826V14.4129ZM66.8826 8.77382H69.0196C69.4146 8.77382 69.7652 8.7042 70.0714 8.56497C70.3821 8.42124 70.6262 8.21912 70.8037 7.95861C70.9857 7.69811 71.0767 7.38595 71.0767 7.02214C71.0767 6.52358 70.9013 6.12159 70.5507 5.81617C70.2046 5.51075 69.7119 5.35804 69.0728 5.35804H66.8826V8.77382Z" fill="#3136C0"/>
<path d="M79.1769 3V16.7979H76.3409V3H79.1769Z" fill="#3136C0"/>
<path d="M88.006 12.3917V6.44947H90.842V16.7979H88.1192V14.9182H88.0127C87.7819 15.5245 87.398 16.0119 86.861 16.3802C86.3284 16.7485 85.6782 16.9326 84.9104 16.9326C84.2269 16.9326 83.6256 16.7754 83.1063 16.461C82.587 16.1466 82.1809 15.6997 81.888 15.1203C81.5995 14.5409 81.4531 13.847 81.4486 13.0385V6.44947H84.2846V12.5265C84.2891 13.1373 84.4511 13.6201 84.7706 13.975C85.0901 14.3298 85.5184 14.5072 86.0554 14.5072C86.3972 14.5072 86.7167 14.4286 87.0141 14.2714C87.3114 14.1097 87.5511 13.8717 87.7331 13.5573C87.9195 13.2429 88.0105 12.8543 88.006 12.3917Z" fill="#3136C0"/>
<path d="M97.7705 17C96.7187 17 95.8133 16.7844 95.0544 16.3532C94.2999 15.9175 93.7185 15.3022 93.3102 14.5072C92.9019 13.7077 92.6977 12.7623 92.6977 11.6708C92.6977 10.6064 92.9019 9.67212 93.3102 8.86814C93.7185 8.06416 94.2932 7.4376 95.0344 6.98845C95.78 6.5393 96.6543 6.31473 97.6574 6.31473C98.332 6.31473 98.96 6.42477 99.5414 6.64485C100.127 6.86044 100.638 7.18608 101.073 7.62175C101.512 8.05743 101.854 8.60539 102.098 9.26564C102.342 9.9214 102.464 10.6894 102.464 11.5698V12.358H93.8294V10.5794H99.7943C99.7943 10.1662 99.7056 9.80013 99.528 9.48123C99.3505 9.16233 99.1042 8.91306 98.7891 8.7334C98.4784 8.54925 98.1167 8.45717 97.704 8.45717C97.2735 8.45717 96.8918 8.55823 96.5589 8.76035C96.2305 8.95797 95.9731 9.22522 95.7867 9.56208C95.6003 9.89445 95.5049 10.265 95.5004 10.6737V12.3648C95.5004 12.8768 95.5936 13.3192 95.78 13.692C95.9709 14.0648 96.2394 14.3523 96.5855 14.5544C96.9317 14.7565 97.3422 14.8576 97.8171 14.8576C98.1322 14.8576 98.4207 14.8126 98.6826 14.7228C98.9444 14.633 99.1686 14.4982 99.355 14.3186C99.5414 14.1389 99.6834 13.9188 99.781 13.6583L102.404 13.8335C102.271 14.4713 101.998 15.0282 101.585 15.5043C101.177 15.9759 100.649 16.3442 100.001 16.6092C99.3572 16.8697 98.6138 17 97.7705 17Z" fill="#3136C0"/>
<path d="M104.368 16.7979V3H109.827C110.83 3 111.666 3.15047 112.337 3.4514C113.007 3.75233 113.51 4.17004 113.848 4.70452C114.185 5.23452 114.354 5.84536 114.354 6.53705C114.354 7.07603 114.247 7.54989 114.034 7.95861C113.821 8.36285 113.528 8.69522 113.155 8.95573C112.787 9.21174 112.365 9.39365 111.891 9.50144V9.63619C112.41 9.65865 112.896 9.80686 113.348 10.0808C113.806 10.3548 114.176 10.7389 114.46 11.2329C114.744 11.7225 114.886 12.3064 114.886 12.9846C114.886 13.7167 114.707 14.3702 114.347 14.9451C113.992 15.5156 113.466 15.967 112.769 16.2993C112.073 16.6317 111.214 16.7979 110.193 16.7979H104.368ZM107.25 14.4129H109.6C110.404 14.4129 110.99 14.2579 111.358 13.948C111.726 13.6336 111.911 13.2159 111.911 12.6949C111.911 12.3131 111.82 11.9763 111.638 11.6843C111.456 11.3924 111.196 11.1633 110.859 10.9971C110.526 10.8309 110.129 10.7478 109.667 10.7478H107.25V14.4129ZM107.25 8.77382H109.387C109.782 8.77382 110.133 8.7042 110.439 8.56497C110.75 8.42124 110.994 8.21912 111.172 7.95861C111.354 7.69811 111.445 7.38595 111.445 7.02214C111.445 6.52358 111.269 6.12159 110.919 5.81617C110.572 5.51075 110.08 5.35804 109.441 5.35804H107.25V8.77382Z" fill="#3136C0"/>
<path d="M121.329 17C120.295 17 119.4 16.7777 118.646 16.333C117.896 15.8839 117.317 15.2595 116.908 14.4601C116.5 13.6561 116.296 12.7241 116.296 11.6641C116.296 10.5951 116.5 9.66089 116.908 8.86141C117.317 8.05743 117.896 7.43311 118.646 6.98845C119.4 6.5393 120.295 6.31473 121.329 6.31473C122.363 6.31473 123.255 6.5393 124.005 6.98845C124.76 7.43311 125.341 8.05743 125.749 8.86141C126.158 9.66089 126.362 10.5951 126.362 11.6641C126.362 12.7241 126.158 13.6561 125.749 14.4601C125.341 15.2595 124.76 15.8839 124.005 16.333C123.255 16.7777 122.363 17 121.329 17ZM121.342 14.7767C121.813 14.7767 122.205 14.642 122.52 14.3725C122.836 14.0985 123.073 13.7257 123.233 13.2541C123.397 12.7825 123.479 12.2457 123.479 11.6439C123.479 11.042 123.397 10.5053 123.233 10.0337C123.073 9.56208 122.836 9.18928 122.52 8.9153C122.205 8.64132 121.813 8.50433 121.342 8.50433C120.867 8.50433 120.468 8.64132 120.144 8.9153C119.824 9.18928 119.582 9.56208 119.418 10.0337C119.258 10.5053 119.179 11.042 119.179 11.6439C119.179 12.2457 119.258 12.7825 119.418 13.2541C119.582 13.7257 119.824 14.0985 120.144 14.3725C120.468 14.642 120.867 14.7767 121.342 14.7767Z" fill="#3136C0"/>
<path d="M130.21 6.44947L132.087 10.0674L134.011 6.44947H136.92L133.958 11.6237L137 16.7979H134.104L132.087 13.2204L130.103 16.7979H127.174L130.21 11.6237L127.28 6.44947H130.21Z" fill="#3136C0"/>
<path d="M69.8884 23.8625C69.8421 23.4395 69.647 23.1102 69.3031 22.8744C68.9624 22.6387 68.5193 22.5209 67.9736 22.5209C67.5899 22.5209 67.2609 22.5774 66.9864 22.6904C66.7119 22.8034 66.5019 22.9568 66.3564 23.1505C66.2108 23.3443 66.1364 23.5655 66.1331 23.8141C66.1331 24.0207 66.1811 24.2 66.277 24.3517C66.3762 24.5035 66.5101 24.6326 66.6788 24.7392C66.8475 24.8425 67.0343 24.9297 67.2394 25.0007C67.4444 25.0718 67.6511 25.1315 67.8595 25.18L68.8119 25.4124C69.1956 25.4996 69.5643 25.6175 69.9182 25.766C70.2754 25.9146 70.5945 26.1018 70.8756 26.3279C71.16 26.5539 71.3849 26.8268 71.5503 27.1464C71.7156 27.4661 71.7983 27.8407 71.7983 28.2701C71.7983 28.8513 71.6462 29.3631 71.3419 29.8055C71.0377 30.2447 70.5978 30.5886 70.0224 30.8372C69.4502 31.0826 68.7574 31.2053 67.9438 31.2053C67.1534 31.2053 66.4672 31.0858 65.8851 30.8469C65.3063 30.6079 64.8533 30.2592 64.5258 29.8007C64.2017 29.3422 64.0265 28.7835 64 28.1248H65.8107C65.8371 28.4703 65.9463 28.7577 66.1381 28.987C66.3299 29.2162 66.5796 29.3874 66.8872 29.5004C67.198 29.6134 67.5453 29.6699 67.9289 29.6699C68.3291 29.6699 68.6797 29.6118 68.9806 29.4955C69.2849 29.3761 69.523 29.2114 69.695 29.0015C69.8669 28.7884 69.9546 28.5397 69.9579 28.2556C69.9546 27.9973 69.8769 27.7842 69.7247 27.6162C69.5726 27.4451 69.3593 27.303 69.0848 27.19C68.8136 27.0738 68.4961 26.9704 68.1323 26.88L66.9765 26.5894C66.1397 26.3795 65.4783 26.0615 64.9922 25.6352C64.5093 25.2058 64.2679 24.6359 64.2679 23.9255C64.2679 23.341 64.4299 22.8292 64.754 22.3901C65.0814 21.9509 65.5263 21.6103 66.0885 21.3681C66.6507 21.1227 67.2873 21 67.9984 21C68.7193 21 69.351 21.1227 69.8934 21.3681C70.4391 21.6103 70.8674 21.9477 71.1782 22.3804C71.4891 22.8099 71.6495 23.3039 71.6594 23.8625H69.8884Z" fill="#3136C0"/>
<path d="M77.1646 23.6155V24.9717H72.7843V23.6155H77.1646ZM73.8657 21.8331H75.6615V28.8174C75.6615 29.0532 75.6979 29.234 75.7707 29.3599C75.8467 29.4826 75.9459 29.5666 76.0683 29.6118C76.1907 29.657 76.3263 29.6796 76.4751 29.6796C76.5875 29.6796 76.6901 29.6715 76.7827 29.6554C76.8786 29.6392 76.9513 29.6247 77.0009 29.6118L77.3035 30.9825C77.2076 31.0148 77.0704 31.0503 76.8918 31.089C76.7165 31.1278 76.5015 31.1504 76.2469 31.1569C75.7971 31.1698 75.392 31.1036 75.0315 30.9583C74.671 30.8097 74.385 30.5805 74.1733 30.2705C73.9649 29.9605 73.8624 29.573 73.8657 29.108V21.8331Z" fill="#3136C0"/>
<path d="M81.9084 31.2004C81.1643 31.2004 80.5194 31.0406 79.9737 30.7209C79.428 30.4013 79.0047 29.954 78.7037 29.3793C78.4061 28.8045 78.2572 28.1329 78.2572 27.3644C78.2572 26.5959 78.4061 25.9226 78.7037 25.3446C79.0047 24.7666 79.428 24.3178 79.9737 23.9981C80.5194 23.6785 81.1643 23.5186 81.9084 23.5186C82.6525 23.5186 83.2974 23.6785 83.8431 23.9981C84.3888 24.3178 84.8104 24.7666 85.1081 25.3446C85.409 25.9226 85.5595 26.5959 85.5595 27.3644C85.5595 28.1329 85.409 28.8045 85.1081 29.3793C84.8104 29.954 84.3888 30.4013 83.8431 30.7209C83.2974 31.0406 82.6525 31.2004 81.9084 31.2004ZM81.9183 29.7958C82.3218 29.7958 82.6591 29.6877 82.9303 29.4713C83.2015 29.2517 83.4032 28.9579 83.5355 28.5898C83.6711 28.2217 83.7389 27.8116 83.7389 27.3595C83.7389 26.9042 83.6711 26.4925 83.5355 26.1244C83.4032 25.7531 83.2015 25.4577 82.9303 25.2381C82.6591 25.0185 82.3218 24.9087 81.9183 24.9087C81.5049 24.9087 81.1609 25.0185 80.8864 25.2381C80.6153 25.4577 80.4119 25.7531 80.2763 26.1244C80.144 26.4925 80.0778 26.9042 80.0778 27.3595C80.0778 27.8116 80.144 28.2217 80.2763 28.5898C80.4119 28.9579 80.6153 29.2517 80.8864 29.4713C81.1609 29.6877 81.5049 29.7958 81.9183 29.7958Z" fill="#3136C0"/>
<path d="M87.0837 31.0551V23.6155H88.8249V24.8554H88.9043C89.0432 24.426 89.2813 24.095 89.6186 23.8625C89.9593 23.6268 90.3479 23.5089 90.7844 23.5089C90.8836 23.5089 90.9944 23.5138 91.1168 23.5235C91.2425 23.5299 91.3466 23.5412 91.4293 23.5574V25.1703C91.3533 25.1444 91.2325 25.1218 91.0672 25.1025C90.9051 25.0799 90.748 25.0686 90.5959 25.0686C90.2685 25.0686 89.9742 25.138 89.7129 25.2768C89.4549 25.4124 89.2515 25.6013 89.1027 25.8435C88.9539 26.0857 88.8795 26.365 88.8795 26.6814V31.0551H87.0837Z" fill="#3136C0"/>
<path d="M94.6786 31.2053C94.1958 31.2053 93.7609 31.1213 93.3739 30.9534C92.9903 30.7823 92.686 30.5304 92.4612 30.1978C92.2396 29.8653 92.1288 29.4552 92.1288 28.9676C92.1288 28.5478 92.2082 28.2007 92.3669 27.9262C92.5256 27.6518 92.7423 27.4322 93.0168 27.2675C93.2913 27.1028 93.6005 26.9785 93.9444 26.8946C94.2917 26.8074 94.6505 26.7444 95.0209 26.7057C95.4674 26.6605 95.8295 26.6201 96.1073 26.5846C96.3851 26.5458 96.5869 26.4877 96.7125 26.4102C96.8415 26.3295 96.906 26.2052 96.906 26.0373V26.0082C96.906 25.6433 96.7952 25.3608 96.5736 25.1606C96.3521 24.9604 96.0329 24.8603 95.6162 24.8603C95.1764 24.8603 94.8274 24.9539 94.5695 25.1412C94.3148 25.3285 94.1429 25.5497 94.0536 25.8048L92.3768 25.5723C92.5091 25.1202 92.7274 24.7424 93.0316 24.4389C93.3359 24.1321 93.708 23.9029 94.1478 23.7511C94.5877 23.5961 95.0738 23.5186 95.6063 23.5186C95.9734 23.5186 96.3388 23.5606 96.7026 23.6446C97.0664 23.7285 97.3988 23.8674 97.6997 24.0611C98.0007 24.2516 98.2421 24.5115 98.424 24.8409C98.6092 25.1703 98.7018 25.582 98.7018 26.076V31.0551H96.9755V30.0332H96.9159C96.8068 30.2398 96.653 30.4336 96.4546 30.6144C96.2595 30.792 96.0131 30.9357 95.7154 31.0455C95.4211 31.152 95.0755 31.2053 94.6786 31.2053ZM95.1449 29.9169C95.5054 29.9169 95.8179 29.8475 96.0825 29.7086C96.3471 29.5666 96.5505 29.3793 96.6927 29.1468C96.8382 28.9143 96.911 28.6608 96.911 28.3864V27.5097C96.8547 27.5549 96.7588 27.5969 96.6232 27.6356C96.491 27.6744 96.3421 27.7083 96.1768 27.7373C96.0114 27.7664 95.8477 27.7922 95.6857 27.8148C95.5236 27.8374 95.3831 27.8568 95.264 27.873C94.9961 27.9085 94.7563 27.9666 94.5447 28.0473C94.333 28.128 94.166 28.2411 94.0436 28.3864C93.9213 28.5284 93.8601 28.7125 93.8601 28.9385C93.8601 29.2614 93.9808 29.5052 94.2222 29.6699C94.4637 29.8346 94.7712 29.9169 95.1449 29.9169Z" fill="#3136C0"/>
<path d="M103.821 34C103.176 34 102.622 33.9144 102.159 33.7433C101.696 33.5754 101.324 33.3494 101.043 33.0652C100.762 32.781 100.567 32.4662 100.458 32.1207L102.075 31.7381C102.148 31.8834 102.254 32.0271 102.393 32.1692C102.532 32.3145 102.718 32.4339 102.953 32.5276C103.191 32.6244 103.491 32.6729 103.851 32.6729C104.36 32.6729 104.782 32.5518 105.116 32.3096C105.45 32.0707 105.617 31.6767 105.617 31.1278V29.7183H105.528C105.435 29.8992 105.3 30.0848 105.121 30.2753C104.946 30.4658 104.713 30.6257 104.422 30.7548C104.134 30.884 103.772 30.9486 103.335 30.9486C102.75 30.9486 102.219 30.8146 101.743 30.5466C101.27 30.2753 100.893 29.8717 100.612 29.3357C100.334 28.7964 100.195 28.1216 100.195 27.3111C100.195 26.4942 100.334 25.8048 100.612 25.2429C100.893 24.6778 101.271 24.25 101.748 23.9594C102.224 23.6655 102.755 23.5186 103.34 23.5186C103.787 23.5186 104.154 23.5929 104.441 23.7414C104.732 23.8867 104.964 24.0627 105.136 24.2694C105.308 24.4728 105.439 24.6649 105.528 24.8458H105.627V23.6155H107.398V31.1762C107.398 31.8123 107.243 32.3387 106.932 32.7552C106.621 33.1718 106.196 33.4834 105.657 33.69C105.118 33.8967 104.506 34 103.821 34ZM103.836 29.573C104.217 29.573 104.541 29.4826 104.809 29.3018C105.076 29.121 105.28 28.861 105.419 28.522C105.558 28.1829 105.627 27.7761 105.627 27.3014C105.627 26.8332 105.558 26.4231 105.419 26.0712C105.283 25.7192 105.081 25.4463 104.813 25.2526C104.549 25.0556 104.223 24.9572 103.836 24.9572C103.436 24.9572 103.102 25.0589 102.834 25.2623C102.566 25.4657 102.365 25.745 102.229 26.1002C102.093 26.4522 102.026 26.8526 102.026 27.3014C102.026 27.7567 102.093 28.1555 102.229 28.4978C102.368 28.8368 102.571 29.1016 102.839 29.2921C103.11 29.4794 103.443 29.573 103.836 29.573Z" fill="#3136C0"/>
<path d="M112.612 31.2004C111.848 31.2004 111.188 31.0455 110.632 30.7355C110.08 30.4223 109.655 29.9799 109.358 29.4083C109.06 28.8336 108.911 28.1571 108.911 27.3789C108.911 26.6136 109.06 25.942 109.358 25.364C109.658 24.7828 110.078 24.3307 110.618 24.0078C111.157 23.6817 111.79 23.5186 112.518 23.5186C112.987 23.5186 113.43 23.5929 113.847 23.7414C114.267 23.8867 114.637 24.1128 114.958 24.4195C115.282 24.7263 115.537 25.117 115.722 25.5917C115.907 26.0631 116 26.6249 116 27.2772V27.8148H109.754V26.633H114.279C114.275 26.2972 114.201 25.9985 114.055 25.737C113.91 25.4722 113.706 25.2639 113.445 25.1121C113.187 24.9604 112.886 24.8845 112.542 24.8845C112.175 24.8845 111.853 24.9717 111.575 25.1461C111.297 25.3172 111.081 25.5432 110.925 25.8241C110.773 26.1018 110.695 26.407 110.692 26.7396V27.7712C110.692 28.2039 110.773 28.5753 110.935 28.8852C111.097 29.192 111.324 29.4277 111.615 29.5924C111.906 29.7539 112.246 29.8346 112.637 29.8346C112.898 29.8346 113.134 29.7991 113.346 29.728C113.558 29.6538 113.741 29.5456 113.897 29.4035C114.052 29.2614 114.169 29.0854 114.249 28.8756L115.926 29.0596C115.82 29.4923 115.618 29.8701 115.32 30.193C115.026 30.5127 114.649 30.7613 114.189 30.9389C113.73 31.1133 113.204 31.2004 112.612 31.2004Z" fill="#3136C0"/>
</svg>
