<svg width="216" height="46" viewBox="0 0 216 46" fill="none" xmlns="http://www.w3.org/2000/svg">
<path d="M44.2244 45.0444L44.2342 0.926714L0.795765 9.13692L0.761065 37.1839L44.2244 45.0444ZM2.48667 10.806C2.27917 10.8416 2.08159 10.7052 2.04536 10.5014C2.00913 10.2976 2.14796 10.1035 2.35546 10.0679L4.30712 9.73022C4.32202 18.6156 4.33714 27.501 4.3523 36.3863L2.64156 36.0818C2.43488 36.0454 2.29737 35.8512 2.33443 35.6482C2.37148 35.4452 2.56909 35.3101 2.77576 35.3465L3.59041 35.4916L3.54826 10.6224L2.48667 10.806ZM5.82783 10.2455C5.62034 10.2811 5.42275 10.1447 5.38652 9.94091C5.35029 9.73708 5.48913 9.54298 5.69663 9.50739L7.71173 9.15887C7.72723 18.4027 7.74273 27.6465 7.75848 36.8904L6.00266 36.576C5.79599 36.5396 5.65848 36.3455 5.69553 36.1424C5.73258 35.9394 5.93019 35.8043 6.13686 35.8407L6.9966 35.9947L6.95286 10.0509L5.82783 10.2455ZM9.16901 9.68502C8.96152 9.72061 8.76393 9.58422 8.7277 9.38039C8.69148 9.17656 8.83031 8.98247 9.03781 8.94688L11.1164 8.5875C11.1321 18.1899 11.1483 27.7923 11.1647 37.3947L9.36227 37.0702C9.1556 37.033 9.01876 36.8382 9.05662 36.6352C9.09448 36.4322 9.29276 36.2978 9.49943 36.335L10.4028 36.4976L10.3575 9.47953L9.16901 9.68502ZM12.5102 9.12451C12.3027 9.1601 12.1051 9.02371 12.0689 8.81988C12.0326 8.61605 12.1715 8.42196 12.379 8.38637L14.521 8.01613C14.5374 17.977 14.5539 27.9378 14.5708 37.8987L12.7234 37.5644C12.5167 37.5272 12.3799 37.3324 12.4177 37.1294C12.4556 36.9264 12.6539 36.792 12.8605 36.8292L13.809 37.0008L13.7621 8.90811L12.5102 9.12451ZM15.8514 8.564C15.6439 8.59959 15.4463 8.4632 15.41 8.25937C15.3738 8.05554 15.5126 7.86145 15.7201 7.82586L17.9256 7.44478C17.9426 17.7641 17.9598 28.0834 17.977 38.4027L16.0844 38.0586C15.8778 38.0214 15.7409 37.8267 15.7788 37.6237C15.8167 37.4206 16.0149 37.2862 16.2216 37.3234L17.2151 37.504L17.1667 8.33671L15.8514 8.564ZM19.1925 8.00349C18.985 8.03908 18.7875 7.90269 18.7512 7.69886C18.715 7.49503 18.8538 7.30093 19.0613 7.26534L21.3302 6.8734L21.3832 38.9066L19.4456 38.5529C19.2389 38.5157 19.1021 38.3209 19.1399 38.1179C19.1778 37.9149 19.3761 37.7804 19.5827 37.8176L20.6213 38.0073L20.5713 7.7653L19.1925 8.00349ZM22.5337 7.44297C22.3262 7.47856 22.1286 7.34218 22.0924 7.13835C22.0562 6.93452 22.195 6.74042 22.4025 6.70483L24.7349 6.30202C24.753 17.3382 24.771 28.3744 24.7894 39.4106L22.8067 39.0471C22.6 39.0099 22.4631 38.8151 22.501 38.6121C22.5389 38.4091 22.7371 38.2747 22.9438 38.3118L24.0275 38.5105L23.976 7.19388L22.5337 7.44297ZM25.8749 6.88246C25.6674 6.91805 25.4698 6.78166 25.4336 6.57784C25.3973 6.37401 25.5362 6.17991 25.7437 6.14432L28.1395 5.73066C28.1579 17.1254 28.1767 28.5201 28.1956 39.9148L26.1663 39.5413C25.9596 39.5033 25.8234 39.3079 25.8621 39.1049C25.9008 38.9018 26.0998 38.7681 26.3064 38.8061L27.4337 39.0135L27.3806 6.62248L25.8749 6.88246ZM29.2161 6.32194C29.0086 6.35753 28.811 6.22115 28.7747 6.01732C28.7385 5.81349 28.8774 5.61939 29.0848 5.5838L31.5441 5.15929C31.563 16.9124 31.5822 28.6656 31.6017 40.4187L29.5274 40.0355C29.3207 39.9975 29.1845 39.8021 29.2232 39.5991C29.2619 39.3961 29.4608 39.2623 29.6675 39.3003L30.8399 39.5168L30.7852 6.05108L29.2161 6.32194ZM32.5572 5.76144C32.3497 5.79702 32.1521 5.66064 32.1159 5.45681C32.0797 5.25298 32.2185 5.05888 32.426 5.0233L34.9487 4.58792C34.9682 16.6995 34.9878 28.811 35.0079 40.9226L32.8885 40.5297C32.6818 40.4917 32.5456 40.2963 32.5843 40.0933C32.623 39.8903 32.8219 39.7565 33.0286 39.7945L34.2461 40.0202L34.1898 5.47968L32.5572 5.76144ZM35.8984 5.20093C35.6909 5.23652 35.4933 5.10013 35.4571 4.8963C35.4209 4.69247 35.5597 4.49838 35.7672 4.46279L38.3534 4.01654C38.3738 16.4865 38.3938 28.9565 38.4141 41.4264L36.2496 41.024C36.0429 40.986 35.9067 40.7905 35.9454 40.5875C35.9841 40.3845 36.183 40.2507 36.3897 40.2887L37.6523 40.5235L37.5944 4.90827L35.8984 5.20093ZM39.2396 4.64041C39.0321 4.676 38.8345 4.53961 38.7983 4.33578C38.762 4.13195 38.9009 3.93786 39.1084 3.90227L41.758 3.44517C41.7791 16.2736 41.7999 29.1019 41.8202 41.9303L39.6107 41.5182C39.404 41.4802 39.2678 41.2847 39.3065 41.0817C39.3452 40.8787 39.5441 40.7449 39.7508 40.783L41.0584 41.0268L40.9991 4.33687L39.2396 4.64041ZM71.525 5.04858L60.7925 3.21638L60.6961 42.9949L71.5091 41.2765L71.525 5.04858ZM60.4775 2.40258L72.2856 4.4184C72.2802 16.9165 72.2752 29.4146 72.2692 41.9128C68.1574 42.5664 64.0455 43.2198 59.9336 43.8731C59.9673 30.0244 60.001 16.1757 60.0343 2.32692L60.4775 2.40258ZM57.9554 43.4782L57.9798 2.73318L47.1096 0.888847L47.0954 45.1286L57.9554 43.4782ZM58.7404 2.41777L58.7154 44.1185C54.5885 44.7459 50.4617 45.3729 46.3348 46C46.3402 30.6667 46.3447 15.3333 46.3495 -6.85453e-07L58.7405 2.10236L58.7404 2.41777ZM44.9947 0.473691L44.9846 45.9419C29.9897 43.2301 14.9947 40.5186 -6.74611e-05 37.8062C0.011902 28.0436 0.02364 18.2809 0.0361744 8.51823C15.0223 5.68525 30.0085 2.85294 44.9947 0.0206809L44.9947 0.473691Z" fill="#3035C6"/>
<path d="M85.4285 34.1445V9.85742H95.1338C96.9171 9.85742 98.4045 10.1223 99.5959 10.652C100.787 11.1817 101.683 11.9169 102.283 12.8577C102.882 13.7906 103.182 14.8658 103.182 16.0834C103.182 17.0321 102.993 17.8662 102.614 18.5856C102.235 19.2971 101.715 19.8822 101.052 20.3407C100.397 20.7914 99.6472 21.1115 98.8029 21.3013V21.5385C99.7261 21.578 100.59 21.8389 101.395 22.3212C102.208 22.8034 102.867 23.4794 103.372 24.349C103.877 25.2108 104.129 26.2386 104.129 27.4324C104.129 28.721 103.81 29.8713 103.17 30.8833C102.539 31.8874 101.604 32.6819 100.365 33.2669C99.1265 33.852 97.5996 34.1445 95.7848 34.1445H85.4285ZM90.5534 29.9464H94.7314C96.1596 29.9464 97.2012 29.6737 97.8561 29.1282C98.511 28.5748 98.8385 27.8395 98.8385 26.9224C98.8385 26.2504 98.6767 25.6575 98.3532 25.1436C98.0297 24.6297 97.5681 24.2265 96.9684 23.934C96.3766 23.6415 95.6704 23.4952 94.8498 23.4952H90.5534V29.9464ZM90.5534 20.0205H94.3527C95.0549 20.0205 95.6783 19.898 96.2227 19.6529C96.7751 19.3999 97.2091 19.0441 97.5247 18.5856C97.8482 18.127 98.0099 17.5776 98.0099 16.9372C98.0099 16.0596 97.6983 15.3521 97.0749 14.8145C96.4595 14.2768 95.5836 14.008 94.4474 14.008H90.5534V20.0205Z" fill="#3136C0"/>
<path d="M112.411 9.85742V34.1445H107.369V9.85742H112.411Z" fill="#3136C0"/>
<path d="M128.108 26.3888V15.9292H133.151V34.1445H128.31V30.8359H128.12C127.71 31.9032 127.027 32.761 126.073 33.4093C125.126 34.0575 123.97 34.3817 122.605 34.3817C121.39 34.3817 120.32 34.105 119.397 33.5516C118.474 32.9981 117.752 32.2115 117.231 31.1916C116.718 30.1718 116.458 28.9503 116.45 27.5272V15.9292H121.492V26.6259C121.5 27.7012 121.788 28.551 122.356 29.1756C122.924 29.8002 123.686 30.1125 124.641 30.1125C125.248 30.1125 125.816 29.9741 126.345 29.6974C126.874 29.4128 127.3 28.9938 127.623 28.4404C127.955 27.8869 128.116 27.2031 128.108 26.3888Z" fill="#3136C0"/>
<path d="M145.469 34.5003C143.599 34.5003 141.989 34.1208 140.64 33.3618C139.298 32.5949 138.265 31.5118 137.539 30.1125C136.813 28.7052 136.45 27.041 136.45 25.1199C136.45 23.2462 136.813 21.6017 137.539 20.1865C138.265 18.7714 139.286 17.6685 140.604 16.8779C141.93 16.0873 143.484 15.692 145.267 15.692C146.467 15.692 147.583 15.8857 148.617 16.2731C149.659 16.6526 150.566 17.2258 151.339 17.9926C152.12 18.7595 152.728 19.7241 153.162 20.8862C153.596 22.0405 153.813 23.3924 153.813 24.942V26.3295H138.462V23.1987H149.067C149.067 22.4714 148.909 21.827 148.593 21.2657C148.278 20.7044 147.84 20.2656 147.28 19.9494C146.727 19.6252 146.084 19.4632 145.35 19.4632C144.585 19.4632 143.906 19.641 143.315 19.9968C142.731 20.3447 142.273 20.8151 141.942 21.408C141.61 21.9931 141.441 22.6453 141.433 23.3647V26.3413C141.433 27.2426 141.598 28.0213 141.93 28.6775C142.269 29.3337 142.746 29.8397 143.362 30.1955C143.977 30.5513 144.707 30.7291 145.551 30.7291C146.112 30.7291 146.625 30.6501 147.09 30.492C147.556 30.3338 147.954 30.0967 148.286 29.7804C148.617 29.4642 148.869 29.0768 149.043 28.6182L153.706 28.9266C153.47 30.0492 152.984 31.0296 152.251 31.8676C151.525 32.6977 150.586 33.346 149.434 33.8125C148.29 34.271 146.968 34.5003 145.469 34.5003Z" fill="#3136C0"/>
<path d="M157.198 34.1445V9.85742H166.903C168.687 9.85742 170.174 10.1223 171.365 10.652C172.557 11.1817 173.452 11.9169 174.052 12.8577C174.652 13.7906 174.952 14.8658 174.952 16.0834C174.952 17.0321 174.762 17.8662 174.384 18.5856C174.005 19.2971 173.484 19.8822 172.821 20.3407C172.166 20.7914 171.417 21.1115 170.572 21.3013V21.5385C171.496 21.578 172.36 21.8389 173.164 22.3212C173.977 22.8034 174.636 23.4794 175.141 24.349C175.646 25.2108 175.899 26.2386 175.899 27.4324C175.899 28.721 175.579 29.8713 174.94 30.8833C174.309 31.8874 173.374 32.6819 172.135 33.2669C170.896 33.852 169.369 34.1445 167.554 34.1445H157.198ZM162.323 29.9464H166.501C167.929 29.9464 168.971 29.6737 169.626 29.1282C170.28 28.5748 170.608 27.8395 170.608 26.9224C170.608 26.2504 170.446 25.6575 170.123 25.1436C169.799 24.6297 169.338 24.2265 168.738 23.934C168.146 23.6415 167.44 23.4952 166.619 23.4952H162.323V29.9464ZM162.323 20.0205H166.122C166.824 20.0205 167.448 19.898 167.992 19.6529C168.545 19.3999 168.979 19.0441 169.294 18.5856C169.618 18.127 169.779 17.5776 169.779 16.9372C169.779 16.0596 169.468 15.3521 168.844 14.8145C168.229 14.2768 167.353 14.008 166.217 14.008H162.323V20.0205Z" fill="#3136C0"/>
<path d="M187.353 34.5003C185.514 34.5003 183.924 34.1089 182.583 33.3262C181.249 32.5356 180.22 31.4367 179.494 30.0295C178.768 28.6143 178.405 26.9738 178.405 25.108C178.405 23.2264 178.768 21.582 179.494 20.1747C180.22 18.7595 181.249 17.6606 182.583 16.8779C183.924 16.0873 185.514 15.692 187.353 15.692C189.191 15.692 190.777 16.0873 192.111 16.8779C193.452 17.6606 194.486 18.7595 195.212 20.1747C195.938 21.582 196.301 23.2264 196.301 25.108C196.301 26.9738 195.938 28.6143 195.212 30.0295C194.486 31.4367 193.452 32.5356 192.111 33.3262C190.777 34.1089 189.191 34.5003 187.353 34.5003ZM187.376 30.5868C188.213 30.5868 188.911 30.3497 189.471 29.8753C190.031 29.393 190.454 28.7368 190.738 27.9067C191.03 27.0766 191.176 26.1318 191.176 25.0724C191.176 24.013 191.03 23.0683 190.738 22.2381C190.454 21.408 190.031 20.7518 189.471 20.2696C188.911 19.7873 188.213 19.5462 187.376 19.5462C186.532 19.5462 185.822 19.7873 185.246 20.2696C184.678 20.7518 184.248 21.408 183.956 22.2381C183.672 23.0683 183.53 24.013 183.53 25.0724C183.53 26.1318 183.672 27.0766 183.956 27.9067C184.248 28.7368 184.678 29.393 185.246 29.8753C185.822 30.3497 186.532 30.5868 187.376 30.5868Z" fill="#3136C0"/>
<path d="M203.142 15.9292L206.479 22.2974L209.9 15.9292H215.072L209.805 25.0369L215.214 34.1445H210.066L206.479 27.8474L202.952 34.1445H197.745L203.142 25.0369L197.934 15.9292H203.142Z" fill="#3136C0"/>
</svg>
