<svg width="93" height="24" viewBox="0 0 93 24" fill="none" xmlns="http://www.w3.org/2000/svg">
<path d="M22.6366 23.5014L22.6416 0.483503L0.407353 4.76709L0.389592 19.4003L22.6366 23.5014ZM1.27285 5.63794C1.16665 5.6565 1.06551 5.58535 1.04697 5.479C1.02842 5.37265 1.09949 5.27139 1.20569 5.25282L2.20466 5.07664C2.21229 9.71248 2.22003 14.3483 2.22779 18.9842L1.35214 18.8253C1.24635 18.8063 1.17596 18.705 1.19493 18.5991C1.2139 18.4932 1.31504 18.4227 1.42083 18.4417L1.83781 18.5173L1.81624 5.5421L1.27285 5.63794ZM2.98306 5.3455C2.87685 5.36406 2.77571 5.29291 2.75717 5.18656C2.73862 5.08021 2.80969 4.97895 2.9159 4.96038L3.94734 4.77854C3.95528 9.60142 3.96321 14.4243 3.97127 19.2472L3.07254 19.0831C2.96675 19.0641 2.89637 18.9629 2.91534 18.8569C2.9343 18.751 3.03545 18.6805 3.14123 18.6995L3.5813 18.7798L3.55891 5.24397L2.98306 5.3455ZM4.69327 5.05305C4.58706 5.07162 4.48592 5.00046 4.46738 4.89412C4.44883 4.78777 4.5199 4.68651 4.62611 4.66794L5.69004 4.48043C5.69811 9.49038 5.7064 14.5003 5.71476 19.5103L4.79219 19.341C4.6864 19.3216 4.61635 19.2199 4.63573 19.114C4.65511 19.0081 4.7566 18.938 4.86239 18.9574L5.32478 19.0422L5.3016 4.94584L4.69327 5.05305ZM6.40347 4.76061C6.29726 4.77918 6.19612 4.70802 6.17758 4.60168C6.15903 4.49533 6.2301 4.39407 6.33631 4.3755L7.43272 4.18233C7.44109 9.37929 7.44957 14.5763 7.45823 19.7732L6.51259 19.5988C6.40681 19.5794 6.33677 19.4778 6.35615 19.3719C6.37553 19.266 6.47701 19.1958 6.5828 19.2152L7.06826 19.3048L7.04428 4.64771L6.40347 4.76061ZM8.11367 4.46817C8.00746 4.48674 7.90632 4.41558 7.88778 4.30924C7.86923 4.20289 7.9403 4.10162 8.04651 4.08306L9.17539 3.88423C9.18407 9.26822 9.19291 14.6522 9.2017 20.0362L8.23298 19.8567C8.1272 19.8373 8.05715 19.7357 8.07654 19.6297C8.09592 19.5238 8.1974 19.4537 8.30319 19.4731L8.81174 19.5673L8.78695 4.34959L8.11367 4.46817ZM9.82388 4.17573C9.71767 4.1943 9.61654 4.12314 9.59799 4.01679C9.57945 3.91045 9.65051 3.80918 9.75672 3.79061L10.9181 3.58612L10.9452 20.2991L9.9534 20.1145C9.84761 20.0951 9.77757 19.9935 9.79695 19.8876C9.81633 19.7817 9.91782 19.7115 10.0236 19.7309L10.5552 19.8299L10.5296 4.05146L9.82388 4.17573ZM11.5341 3.88329C11.4279 3.90186 11.3267 3.8307 11.3082 3.72436C11.2897 3.61801 11.3607 3.51674 11.4669 3.49817L12.6608 3.28801C12.67 9.04602 12.6793 14.804 12.6887 20.562L11.6738 20.3724C11.568 20.353 11.498 20.2514 11.5173 20.1454C11.5367 20.0395 11.6382 19.9694 11.744 19.9888L12.2987 20.0925L12.2723 3.75333L11.5341 3.88329ZM13.2443 3.59085C13.1381 3.60942 13.037 3.53826 13.0184 3.43191C12.9999 3.32557 13.0709 3.2243 13.1771 3.20573L14.4035 2.98991C14.4129 8.93498 14.4225 14.88 14.4322 20.8251L13.3935 20.6302C13.2877 20.6104 13.218 20.5085 13.2378 20.4025C13.2576 20.2966 13.3594 20.2268 13.4652 20.2466L14.0422 20.3549L14.015 3.45521L13.2443 3.59085ZM14.9545 3.29841C14.8483 3.31697 14.7472 3.24582 14.7286 3.13947C14.7101 3.03313 14.7811 2.93186 14.8873 2.91329L16.1461 2.6918C16.1558 8.82387 16.1657 14.9559 16.1756 21.088L15.1138 20.8881C15.0081 20.8683 14.9384 20.7663 14.9582 20.6604C14.978 20.5545 15.0798 20.4847 15.1856 20.5045L15.7857 20.6175L15.7577 3.15709L14.9545 3.29841ZM16.6647 3.00597C16.5585 3.02453 16.4574 2.95338 16.4388 2.84703C16.4203 2.74069 16.4913 2.63942 16.5975 2.62085L17.8888 2.3937C17.8988 8.71277 17.9088 15.0318 17.9191 21.3509L16.8342 21.1459C16.7285 21.1261 16.6588 21.0242 16.6786 20.9182C16.6984 20.8123 16.8002 20.7425 16.906 20.7624L17.5291 20.8801L17.5004 2.85896L16.6647 3.00597ZM18.3749 2.71353C18.2687 2.7321 18.1676 2.66094 18.149 2.55459C18.1305 2.44825 18.2015 2.34698 18.3078 2.32841L19.6315 2.09558C19.642 8.60166 19.6522 15.1077 19.6626 21.6138L18.5546 21.4038C18.4489 21.384 18.3792 21.282 18.399 21.1761C18.4188 21.0702 18.5206 21.0004 18.6264 21.0202L19.2726 21.1427L19.243 2.56084L18.3749 2.71353ZM20.0851 2.42109C19.9789 2.43965 19.8778 2.36849 19.8592 2.26215C19.8407 2.1558 19.9117 2.05453 20.018 2.03597L21.3742 1.79748C21.385 8.49055 21.3956 15.1836 21.4061 21.8767L20.2751 21.6617C20.1693 21.6418 20.0996 21.5399 20.1194 21.4339C20.1392 21.328 20.241 21.2582 20.3468 21.2781L21.0161 21.4053L20.9857 2.26271L20.0851 2.42109ZM36.6107 2.63404L31.1171 1.67811L31.0678 22.4321L36.6025 21.5355L36.6107 2.63404ZM30.9559 1.25352L37 2.30525C36.9972 8.82601 36.9946 15.3468 36.9916 21.8675C34.8869 22.2086 32.7822 22.5495 30.6775 22.8903C30.6948 15.6649 30.712 8.43948 30.729 1.21404L30.9559 1.25352ZM29.665 22.6843L29.6774 1.42601L24.1134 0.463746L24.1062 23.5454L29.665 22.6843ZM30.0667 1.26145L30.054 23.0184C27.9416 23.3457 25.8292 23.6728 23.7169 24C23.7196 16 23.722 8 23.7244 -3.57628e-07L30.0668 1.09689L30.0667 1.26145ZM23.0309 0.247143L23.0257 23.9697C15.3505 22.5549 7.6752 21.1402 -1.97279e-07 19.725C0.00612648 14.6314 0.0121346 9.53785 0.0185505 4.44429C7.6893 2.96622 15.3601 1.48849 23.0309 0.01079L23.0309 0.247143Z" fill="#3035C6"/>
<path d="M41 10.8556V1H44.8886C45.603 1 46.199 1.10748 46.6763 1.32243C47.1537 1.53738 47.5125 1.83574 47.7528 2.21752C47.9931 2.59609 48.1132 3.0324 48.1132 3.52647C48.1132 3.91145 48.0373 4.24992 47.8856 4.54187C47.7338 4.83061 47.5252 5.06801 47.2596 5.25409C46.9972 5.43696 46.6969 5.56689 46.3586 5.64389V5.74013C46.7285 5.75618 47.0747 5.86205 47.3972 6.05775C47.7228 6.25345 47.9868 6.52775 48.1891 6.88065C48.3914 7.23035 48.4926 7.64742 48.4926 8.13186C48.4926 8.6548 48.3646 9.12159 48.1085 9.53224C47.8556 9.93968 47.4809 10.2621 46.9846 10.4995C46.4882 10.7369 45.8765 10.8556 45.1494 10.8556H41ZM43.0533 9.15207H44.7273C45.2995 9.15207 45.7169 9.04138 45.9793 8.82002C46.2417 8.59544 46.3729 8.29708 46.3729 7.92493C46.3729 7.65223 46.308 7.41161 46.1784 7.20308C46.0488 6.99455 45.8639 6.83093 45.6236 6.71222C45.3865 6.59352 45.1035 6.53417 44.7747 6.53417H43.0533V9.15207ZM43.0533 5.12416H44.5756C44.8569 5.12416 45.1067 5.07443 45.3248 4.97498C45.5461 4.87231 45.72 4.72794 45.8465 4.54187C45.9761 4.35579 46.0409 4.13282 46.0409 3.87295C46.0409 3.51684 45.916 3.22971 45.6663 3.01155C45.4197 2.79339 45.0688 2.68431 44.6135 2.68431H43.0533V5.12416Z" fill="#3136C0"/>
<path d="M51.8109 1V10.8556H49.7908V1H51.8109Z" fill="#3136C0"/>
<path d="M58.1002 7.70837V3.46391H60.1203V10.8556H58.1808V9.51299H58.1049C57.9405 9.9461 57.6671 10.2942 57.2845 10.5573C56.9052 10.8203 56.442 10.9519 55.8951 10.9519C55.4082 10.9519 54.9798 10.8396 54.61 10.615C54.2401 10.3904 53.9508 10.0712 53.7421 9.65736C53.5367 9.2435 53.4323 8.74783 53.4292 8.17036V3.46391H55.4493V7.80462C55.4525 8.24094 55.5679 8.58582 55.7955 8.83927C56.0231 9.09272 56.3282 9.21944 56.7107 9.21944C56.9542 9.21944 57.1818 9.1633 57.3936 9.05101C57.6054 8.93551 57.7761 8.76548 57.9058 8.5409C58.0385 8.31633 58.1033 8.03882 58.1002 7.70837Z" fill="#3136C0"/>
<path d="M65.0557 11C64.3065 11 63.6615 10.846 63.1209 10.538C62.5835 10.2268 62.1693 9.7873 61.8785 9.21944C61.5876 8.64838 61.4422 7.97305 61.4422 7.19345C61.4422 6.43311 61.5876 5.7658 61.8785 5.19153C62.1693 4.61726 62.5787 4.16971 63.1067 3.84889C63.6378 3.52807 64.2606 3.36766 64.9751 3.36766C65.4556 3.36766 65.903 3.44626 66.3171 3.60346C66.7344 3.75746 67.098 3.99005 67.4078 4.30125C67.7208 4.61245 67.9642 5.00385 68.1381 5.47546C68.312 5.94386 68.3989 6.49246 68.3989 7.12127V7.68431H62.2484V6.41386H66.4973C66.4973 6.1187 66.4341 5.85723 66.3076 5.62945C66.1812 5.40167 66.0057 5.22361 65.7813 5.09528C65.56 4.96375 65.3023 4.89798 65.0083 4.89798C64.7016 4.89798 64.4298 4.97016 64.1926 5.11453C63.9587 5.25569 63.7753 5.44658 63.6426 5.6872C63.5098 5.92461 63.4418 6.18928 63.4386 6.48123V7.68912C63.4386 8.05486 63.505 8.37087 63.6378 8.63715C63.7738 8.90343 63.965 9.10876 64.2116 9.25313C64.4582 9.3975 64.7506 9.46968 65.0889 9.46968C65.3134 9.46968 65.5189 9.4376 65.7054 9.37343C65.8919 9.30927 66.0516 9.21302 66.1844 9.0847C66.3171 8.95637 66.4183 8.79917 66.4878 8.61309L68.3563 8.73821C68.2614 9.19378 68.067 9.59159 67.773 9.93167C67.4821 10.2685 67.1059 10.5316 66.6443 10.7209C66.1859 10.907 65.6564 11 65.0557 11Z" fill="#3136C0"/>
<path d="M69.7552 10.8556V1H73.6437C74.3582 1 74.9542 1.10748 75.4315 1.32243C75.9089 1.53738 76.2677 1.83574 76.508 2.21752C76.7483 2.59609 76.8684 3.0324 76.8684 3.52647C76.8684 3.91145 76.7925 4.24992 76.6408 4.54187C76.489 4.83061 76.2804 5.06801 76.0148 5.25409C75.7524 5.43696 75.4521 5.56689 75.1138 5.64389V5.74013C75.4837 5.75618 75.8299 5.86205 76.1523 6.05775C76.478 6.25345 76.7419 6.52775 76.9443 6.88065C77.1466 7.23035 77.2478 7.64742 77.2478 8.13186C77.2478 8.6548 77.1197 9.12159 76.8637 9.53224C76.6107 9.93968 76.2361 10.2621 75.7398 10.4995C75.2434 10.7369 74.6317 10.8556 73.9046 10.8556H69.7552ZM71.8085 9.15207H73.4825C74.0547 9.15207 74.472 9.04138 74.7344 8.82002C74.9968 8.59544 75.128 8.29708 75.128 7.92493C75.128 7.65223 75.0632 7.41161 74.9336 7.20308C74.804 6.99455 74.619 6.83093 74.3788 6.71222C74.1417 6.59352 73.8587 6.53417 73.5299 6.53417H71.8085V9.15207ZM71.8085 5.12416H73.3308C73.6121 5.12416 73.8619 5.07443 74.08 4.97498C74.3013 4.87231 74.4752 4.72794 74.6017 4.54187C74.7313 4.35579 74.7961 4.13282 74.7961 3.87295C74.7961 3.51684 74.6712 3.22971 74.4215 3.01155C74.1749 2.79339 73.8239 2.68431 73.3687 2.68431H71.8085V5.12416Z" fill="#3136C0"/>
<path d="M81.837 11C81.1004 11 80.4633 10.8412 79.9259 10.5236C79.3916 10.2028 78.9791 9.75682 78.6882 9.18575C78.3974 8.61148 78.2519 7.94578 78.2519 7.18864C78.2519 6.42509 78.3974 5.75778 78.6882 5.18672C78.9791 4.61245 79.3916 4.16651 79.9259 3.84889C80.4633 3.52807 81.1004 3.36766 81.837 3.36766C82.5736 3.36766 83.209 3.52807 83.7433 3.84889C84.2808 4.16651 84.6949 4.61245 84.9858 5.18672C85.2766 5.75778 85.4221 6.42509 85.4221 7.18864C85.4221 7.94578 85.2766 8.61148 84.9858 9.18575C84.6949 9.75682 84.2808 10.2028 83.7433 10.5236C83.209 10.8412 82.5736 11 81.837 11ZM81.8465 9.41193C82.1816 9.41193 82.4614 9.31569 82.6858 9.12319C82.9103 8.92749 83.0794 8.66121 83.1932 8.32435C83.3102 7.98749 83.3687 7.60411 83.3687 7.17421C83.3687 6.7443 83.3102 6.36092 83.1932 6.02406C83.0794 5.6872 82.9103 5.42092 82.6858 5.22522C82.4614 5.02951 82.1816 4.93166 81.8465 4.93166C81.5082 4.93166 81.2237 5.02951 80.9929 5.22522C80.7653 5.42092 80.593 5.6872 80.476 6.02406C80.3622 6.36092 80.3053 6.7443 80.3053 7.17421C80.3053 7.60411 80.3622 7.98749 80.476 8.32435C80.593 8.66121 80.7653 8.92749 80.9929 9.12319C81.2237 9.31569 81.5082 9.41193 81.8465 9.41193Z" fill="#3136C0"/>
<path d="M88.163 3.46391L89.5003 6.04812L90.8708 3.46391H92.9431L90.8328 7.15977L93 10.8556H90.9372L89.5003 8.30029L88.0871 10.8556H86.0006L88.163 7.15977L86.0765 3.46391H88.163Z" fill="#3136C0"/>
<path d="M45.9825 15.4221C45.9433 15.0642 45.7782 14.7855 45.4872 14.5861C45.199 14.3866 44.824 14.2869 44.3623 14.2869C44.0376 14.2869 43.7592 14.3347 43.5269 14.4303C43.2947 14.526 43.117 14.6557 42.9938 14.8197C42.8707 14.9836 42.8078 15.1708 42.805 15.3811C42.805 15.556 42.8455 15.7077 42.9267 15.8361C43.0106 15.9645 43.124 16.0738 43.2667 16.1639C43.4094 16.2514 43.5675 16.3251 43.741 16.3852C43.9145 16.4454 44.0894 16.4959 44.2657 16.5369L45.0716 16.7336C45.3963 16.8074 45.7083 16.9071 46.0077 17.0328C46.3099 17.1585 46.58 17.3169 46.8178 17.5082C47.0585 17.6995 47.2488 17.9303 47.3887 18.2008C47.5286 18.4713 47.5986 18.7883 47.5986 19.1516C47.5986 19.6434 47.4699 20.0765 47.2124 20.4508C46.955 20.8224 46.5828 21.1134 46.0959 21.3238C45.6117 21.5314 45.0255 21.6352 44.3371 21.6352C43.6683 21.6352 43.0876 21.5342 42.5951 21.332C42.1054 21.1298 41.722 20.8347 41.4449 20.4467C41.1707 20.0587 41.0224 19.5861 41 19.0287H42.5321C42.5545 19.321 42.6468 19.5642 42.8092 19.7582C42.9715 19.9522 43.1827 20.097 43.443 20.1926C43.706 20.2883 43.9999 20.3361 44.3245 20.3361C44.6631 20.3361 44.9597 20.2869 45.2144 20.1885C45.4718 20.0874 45.6733 19.9481 45.8188 19.7705C45.9643 19.5902 46.0385 19.3798 46.0413 19.1393C46.0385 18.9208 45.9727 18.7404 45.844 18.5984C45.7153 18.4536 45.5348 18.3333 45.3025 18.2377C45.073 18.1393 44.8044 18.0519 44.4966 17.9754L43.5185 17.7295C42.8106 17.5519 42.2509 17.2828 41.8395 16.9221C41.431 16.5587 41.2267 16.0765 41.2267 15.4754C41.2267 14.9809 41.3638 14.5478 41.638 14.1762C41.9151 13.8046 42.2915 13.5164 42.7672 13.3115C43.2429 13.1038 43.7816 13 44.3832 13C44.9933 13 45.5278 13.1038 45.9867 13.3115C46.4484 13.5164 46.8108 13.8019 47.0739 14.168C47.3369 14.5314 47.4727 14.9495 47.4811 15.4221H45.9825Z" fill="#3136C0"/>
<path d="M52.1393 15.2131V16.3607H48.4329V15.2131H52.1393ZM49.3479 13.7049H50.8674V19.6148C50.8674 19.8142 50.8982 19.9672 50.9598 20.0738C51.0242 20.1776 51.1081 20.2486 51.2116 20.2869C51.3152 20.3251 51.4299 20.3443 51.5558 20.3443C51.651 20.3443 51.7377 20.3374 51.8161 20.3238C51.8972 20.3101 51.9588 20.2978 52.0008 20.2869L52.2568 21.4467C52.1757 21.474 52.0596 21.5041 51.9084 21.5369C51.7601 21.5697 51.5782 21.5888 51.3628 21.5943C50.9822 21.6052 50.6394 21.5492 50.3344 21.4262C50.0293 21.3005 49.7873 21.1066 49.6082 20.8443C49.4319 20.582 49.3451 20.2541 49.3479 19.8607V13.7049Z" fill="#3136C0"/>
<path d="M56.1532 21.6311C55.5236 21.6311 54.9779 21.4959 54.5162 21.2254C54.0544 20.9549 53.6963 20.5765 53.4416 20.0902C53.1897 19.6038 53.0638 19.0355 53.0638 18.3852C53.0638 17.735 53.1897 17.1653 53.4416 16.6762C53.6963 16.1872 54.0544 15.8074 54.5162 15.5369C54.9779 15.2664 55.5236 15.1311 56.1532 15.1311C56.7829 15.1311 57.3286 15.2664 57.7903 15.5369C58.252 15.8074 58.6088 16.1872 58.8607 16.6762C59.1153 17.1653 59.2427 17.735 59.2427 18.3852C59.2427 19.0355 59.1153 19.6038 58.8607 20.0902C58.6088 20.5765 58.252 20.9549 57.7903 21.2254C57.3286 21.4959 56.7829 21.6311 56.1532 21.6311ZM56.1616 20.4426C56.503 20.4426 56.7885 20.3511 57.0179 20.168C57.2474 19.9822 57.4181 19.7336 57.53 19.4221C57.6448 19.1107 57.7021 18.7637 57.7021 18.3811C57.7021 17.9959 57.6448 17.6475 57.53 17.3361C57.4181 17.0219 57.2474 16.7719 57.0179 16.5861C56.7885 16.4003 56.503 16.3074 56.1616 16.3074C55.8118 16.3074 55.5208 16.4003 55.2885 16.5861C55.0591 16.7719 54.887 17.0219 54.7722 17.3361C54.6603 17.6475 54.6043 17.9959 54.6043 18.3811C54.6043 18.7637 54.6603 19.1107 54.7722 19.4221C54.887 19.7336 55.0591 19.9822 55.2885 20.168C55.5208 20.3511 55.8118 20.4426 56.1616 20.4426Z" fill="#3136C0"/>
<path d="M60.5324 21.5082V15.2131H62.0057V16.2623H62.0729C62.1904 15.8989 62.3919 15.6189 62.6773 15.4221C62.9655 15.2227 63.2944 15.123 63.6637 15.123C63.7477 15.123 63.8414 15.127 63.945 15.1352C64.0513 15.1407 64.1395 15.1503 64.2094 15.1639V16.5287C64.1451 16.5068 64.0429 16.4877 63.903 16.4713C63.7659 16.4522 63.633 16.4426 63.5042 16.4426C63.2272 16.4426 62.9781 16.5014 62.7571 16.6189C62.5388 16.7336 62.3667 16.8934 62.2408 17.0984C62.1148 17.3033 62.0519 17.5396 62.0519 17.8074V21.5082H60.5324Z" fill="#3136C0"/>
<path d="M66.9588 21.6352C66.5503 21.6352 66.1823 21.5642 65.8549 21.4221C65.5303 21.2773 65.2728 21.0642 65.0825 20.7828C64.895 20.5014 64.8013 20.1544 64.8013 19.7418C64.8013 19.3866 64.8684 19.0929 65.0028 18.8607C65.1371 18.6284 65.3204 18.4426 65.5526 18.3033C65.7849 18.1639 66.0466 18.0587 66.3376 17.9877C66.6314 17.9139 66.9351 17.8607 67.2485 17.8279C67.6263 17.7896 67.9327 17.7555 68.1677 17.7254C68.4028 17.6926 68.5735 17.6434 68.6798 17.5779C68.789 17.5096 68.8435 17.4044 68.8435 17.2623V17.2377C68.8435 16.929 68.7498 16.6899 68.5623 16.5205C68.3748 16.3511 68.1048 16.2664 67.7522 16.2664C67.38 16.2664 67.0848 16.3456 66.8665 16.5041C66.651 16.6626 66.5055 16.8497 66.4299 17.0656L65.0112 16.8689C65.1231 16.4863 65.3078 16.1667 65.5652 15.9098C65.8227 15.6503 66.1375 15.4563 66.5097 15.3279C66.8819 15.1967 67.2932 15.1311 67.7438 15.1311C68.0544 15.1311 68.3636 15.1667 68.6714 15.2377C68.9793 15.3087 69.2605 15.4262 69.5152 15.5902C69.7698 15.7514 69.9741 15.9713 70.128 16.25C70.2847 16.5287 70.3631 16.877 70.3631 17.2951V21.5082H68.9023V20.6434H68.8519C68.7596 20.8183 68.6295 20.9822 68.4616 21.1352C68.2965 21.2855 68.088 21.4071 67.8361 21.5C67.5871 21.5902 67.2946 21.6352 66.9588 21.6352ZM67.3534 20.5451C67.6584 20.5451 67.9229 20.4863 68.1468 20.3689C68.3706 20.2486 68.5427 20.0902 68.6631 19.8934C68.7862 19.6967 68.8477 19.4822 68.8477 19.25V18.5082C68.8002 18.5464 68.719 18.582 68.6043 18.6148C68.4923 18.6475 68.3664 18.6762 68.2265 18.7008C68.0866 18.7254 67.9481 18.7473 67.8109 18.7664C67.6738 18.7855 67.5549 18.8019 67.4542 18.8156C67.2275 18.8456 67.0246 18.8948 66.8455 18.9631C66.6664 19.0314 66.5251 19.127 66.4215 19.25C66.318 19.3702 66.2662 19.526 66.2662 19.7172C66.2662 19.9904 66.3684 20.1967 66.5727 20.3361C66.7769 20.4754 67.0372 20.5451 67.3534 20.5451Z" fill="#3136C0"/>
<path d="M74.695 24C74.1493 24 73.6805 23.9276 73.2888 23.7828C72.897 23.6407 72.5822 23.4495 72.3443 23.209C72.1065 22.9686 71.9414 22.7022 71.849 22.4098L73.2174 22.0861C73.279 22.209 73.3685 22.3306 73.4861 22.4508C73.6036 22.5738 73.7617 22.6749 73.9604 22.7541C74.1619 22.8361 74.4151 22.8771 74.7201 22.8771C75.1511 22.8771 75.5079 22.7746 75.7905 22.5697C76.0732 22.3675 76.2145 22.0342 76.2145 21.5697V20.377H76.1389C76.0606 20.5301 75.9458 20.6872 75.7947 20.8484C75.6464 21.0096 75.4491 21.1448 75.2029 21.2541C74.9594 21.3634 74.653 21.418 74.2836 21.418C73.7883 21.418 73.3391 21.3046 72.9362 21.0779C72.536 20.8484 72.217 20.5068 71.9791 20.0533C71.7441 19.597 71.6265 19.026 71.6265 18.3402C71.6265 17.6489 71.7441 17.0656 71.9791 16.5902C72.217 16.112 72.5374 15.75 72.9404 15.5041C73.3433 15.2555 73.7925 15.1311 74.2878 15.1311C74.6656 15.1311 74.9762 15.194 75.2197 15.3197C75.4659 15.4426 75.6618 15.5915 75.8073 15.7664C75.9528 15.9385 76.0634 16.1011 76.1389 16.2541H76.2229V15.2131H77.7214V21.6107C77.7214 22.1489 77.5899 22.5943 77.3268 22.9467C77.0638 23.2992 76.7042 23.5628 76.2481 23.7377C75.7919 23.9126 75.2742 24 74.695 24ZM74.7076 20.2541C75.0294 20.2541 75.3036 20.1776 75.5303 20.0246C75.7569 19.8716 75.929 19.6516 76.0466 19.3648C76.1641 19.0779 76.2229 18.7336 76.2229 18.332C76.2229 17.9358 76.1641 17.5888 76.0466 17.291C75.9318 16.9932 75.7611 16.7623 75.5345 16.5984C75.3106 16.4317 75.035 16.3484 74.7076 16.3484C74.3689 16.3484 74.0863 16.4344 73.8596 16.6066C73.633 16.7787 73.4623 17.015 73.3475 17.3156C73.2328 17.6134 73.1754 17.9522 73.1754 18.332C73.1754 18.7172 73.2328 19.0546 73.3475 19.3443C73.4651 19.6311 73.6372 19.8552 73.8638 20.0164C74.0933 20.1749 74.3745 20.2541 74.7076 20.2541Z" fill="#3136C0"/>
<path d="M82.1331 21.6311C81.4866 21.6311 80.9284 21.5 80.4582 21.2377C79.9909 20.9727 79.6313 20.5984 79.3795 20.1148C79.1276 19.6284 79.0017 19.056 79.0017 18.3975C79.0017 17.75 79.1276 17.1817 79.3795 16.6926C79.6341 16.2008 79.9895 15.8183 80.4456 15.5451C80.9018 15.2691 81.4377 15.1311 82.0533 15.1311C82.4507 15.1311 82.8257 15.194 83.1783 15.3197C83.5336 15.4426 83.8471 15.6339 84.1185 15.8934C84.3928 16.153 84.6082 16.4836 84.7649 16.8852C84.9216 17.2842 85 17.7596 85 18.3115V18.7664H79.7153V17.7664H83.5434C83.5406 17.4822 83.4777 17.2295 83.3546 17.0082C83.2314 16.7842 83.0593 16.6079 82.8383 16.4795C82.62 16.3511 82.3653 16.2869 82.0743 16.2869C81.7637 16.2869 81.4908 16.3607 81.2558 16.5082C81.0207 16.653 80.8374 16.8443 80.7059 17.082C80.5772 17.3169 80.5114 17.5751 80.5086 17.8566V18.7295C80.5086 19.0956 80.5772 19.4098 80.7143 19.6721C80.8514 19.9317 81.0431 20.1311 81.2893 20.2705C81.5356 20.4071 81.8238 20.4754 82.154 20.4754C82.3751 20.4754 82.5752 20.4454 82.7543 20.3852C82.9334 20.3224 83.0887 20.2309 83.2202 20.1107C83.3518 19.9904 83.4511 19.8415 83.5183 19.6639L84.937 19.8197C84.8475 20.1858 84.6768 20.5055 84.4249 20.7787C84.1759 21.0492 83.8569 21.2596 83.4679 21.4098C83.0789 21.5574 82.634 21.6311 82.1331 21.6311Z" fill="#3136C0"/>
</svg>
