<svg width="160" height="34" viewBox="0 0 160 34" fill="none" xmlns="http://www.w3.org/2000/svg">
<path d="M32.6876 33.2937L32.6948 0.684963L0.588123 6.75338L0.562475 27.4837L32.6876 33.2937ZM1.83792 7.98708C1.68455 8.01338 1.53851 7.91257 1.51173 7.76192C1.48496 7.61126 1.58757 7.4678 1.74094 7.44149L3.18347 7.1919C3.19448 13.7593 3.20566 20.3268 3.21687 26.8942L1.9524 26.6691C1.79964 26.6422 1.69801 26.4987 1.7254 26.3487C1.75278 26.1986 1.89884 26.0988 2.05159 26.1257L2.65373 26.2329L2.62257 7.85131L1.83792 7.98708ZM4.30748 7.57279C4.15411 7.59909 4.00807 7.49828 3.98129 7.34763C3.95451 7.19697 4.05713 7.05351 4.2105 7.0272L5.69992 6.7696C5.71138 13.602 5.72283 20.4344 5.73448 27.2668L4.4367 27.0344C4.28394 27.0075 4.1823 26.864 4.20969 26.714C4.23708 26.5639 4.38313 26.4641 4.53589 26.491L5.17135 26.6048L5.13902 7.42896L4.30748 7.57279ZM6.77705 7.15849C6.62368 7.1848 6.47764 7.08399 6.45086 6.93333C6.42408 6.78268 6.5267 6.63922 6.68007 6.61291L8.2164 6.34728C8.22806 13.4447 8.24002 20.5421 8.2521 27.6396L6.91989 27.3997C6.76713 27.3722 6.66599 27.2283 6.69397 27.0782C6.72196 26.9281 6.86851 26.8288 7.02127 26.8563L7.68897 26.9765L7.65548 7.00661L6.77705 7.15849ZM9.24661 6.7442C9.09324 6.77051 8.9472 6.6697 8.92042 6.51904C8.89364 6.36839 8.99626 6.22493 9.14963 6.19862L10.7329 5.92496C10.745 13.2873 10.7572 20.6497 10.7697 28.0121L9.40418 27.765C9.25142 27.7375 9.15028 27.5935 9.17827 27.4435C9.20626 27.2934 9.3528 27.1941 9.50556 27.2216L10.2066 27.3484L10.1719 6.58425L9.24661 6.7442ZM11.7162 6.32991C11.5628 6.35622 11.4167 6.25541 11.39 6.10475C11.3632 5.9541 11.4658 5.81063 11.6192 5.78433L13.2493 5.50266C13.2618 13.13 13.2746 20.7573 13.2873 28.3846L11.8885 28.1303C11.7357 28.1028 11.6346 27.9588 11.6625 27.8088C11.6905 27.6587 11.8371 27.5594 11.9898 27.5869L12.7242 27.7204L12.6884 6.16192L11.7162 6.32991ZM14.1857 5.91562C14.0324 5.94193 13.8863 5.84112 13.8595 5.69046C13.8328 5.5398 13.9354 5.39634 14.0888 5.37004L15.7658 5.08034L15.8049 28.7571L14.3728 28.4956C14.22 28.4681 14.1189 28.3241 14.1468 28.1741C14.1748 28.024 14.3214 27.9247 14.4741 27.9522L15.2418 28.0923L15.2049 5.73957L14.1857 5.91562ZM16.6553 5.50133C16.5019 5.52763 16.3559 5.42683 16.3291 5.27617C16.3023 5.12551 16.405 4.98205 16.5583 4.95574L18.2822 4.65801C18.2956 12.8152 18.309 20.9724 18.3225 29.1296L16.857 28.8609C16.7043 28.8334 16.6031 28.6894 16.6311 28.5394C16.6591 28.3893 16.8057 28.29 16.9584 28.3175L17.7594 28.4643L17.7213 5.31722L16.6553 5.50133ZM19.1249 5.08704C18.9715 5.11334 18.8255 5.01253 18.7987 4.86188C18.7719 4.71122 18.8745 4.56776 19.0279 4.54146L20.7987 4.23571C20.8123 12.6579 20.8262 21.0801 20.8402 29.5022L19.3402 29.2262C19.1875 29.1981 19.0868 29.0536 19.1154 28.9036C19.144 28.7535 19.2911 28.6547 19.4438 28.6827L20.277 28.8361L20.2378 4.89488L19.1249 5.08704ZM21.5944 4.67274C21.4411 4.69905 21.295 4.59824 21.2682 4.44759C21.2415 4.29693 21.3441 4.15346 21.4974 4.12716L23.3152 3.81339C23.3291 12.5005 23.3433 21.1876 23.3578 29.8747L21.8245 29.5915C21.6718 29.5634 21.5711 29.4189 21.5997 29.2689C21.6283 29.1188 21.7754 29.02 21.9281 29.048L22.7947 29.2081L22.7542 4.47254L21.5944 4.67274ZM24.064 4.25845C23.9106 4.28476 23.7646 4.18395 23.7378 4.03329C23.711 3.88264 23.8136 3.73918 23.967 3.71287L25.8316 3.39107C25.846 12.3431 25.8605 21.2951 25.8754 30.2471L24.3088 29.9568C24.1561 29.9287 24.0554 29.7842 24.084 29.6342C24.1126 29.4841 24.2596 29.3852 24.4124 29.4133L25.3123 29.5801L25.2707 4.0502L24.064 4.25845ZM26.5336 3.84416C26.3802 3.87047 26.2341 3.76966 26.2074 3.619C26.1806 3.46835 26.2832 3.32489 26.4366 3.29858L28.3481 2.96874C28.3632 12.1857 28.378 21.4026 28.393 30.6195L26.7931 30.3221C26.6403 30.294 26.5397 30.1495 26.5683 29.9995C26.5969 29.8494 26.7439 29.7505 26.8967 29.7786L27.8299 29.9521L27.7871 3.62785L26.5336 3.84416ZM29.0031 3.42987C28.8497 3.45618 28.7037 3.35537 28.6769 3.20471C28.6501 3.05405 28.7528 2.91059 28.9061 2.88429L30.8645 2.54643C30.8801 12.0283 30.8955 21.5101 30.9106 30.992L29.2774 30.6874C29.1246 30.6593 29.024 30.5148 29.0526 30.3648C29.0812 30.2147 29.2282 30.1158 29.381 30.1439L30.3475 30.3242L30.3036 3.20551L29.0031 3.42987ZM52.8663 3.73156L44.9335 2.37732L44.8623 31.7788L52.8545 30.5087L52.8663 3.73156ZM44.7007 1.77582L53.4285 3.26578C53.4244 12.5035 53.4207 21.7413 53.4163 30.979C50.3771 31.4621 47.3379 31.9451 44.2987 32.428C44.3236 22.192 44.3485 11.9559 44.3731 1.7199L44.7007 1.77582ZM42.8366 32.1361L42.8546 2.02018L34.8201 0.656974L34.8096 33.3559L42.8366 32.1361ZM43.4167 1.78705L43.3983 32.6094C40.348 33.073 37.2977 33.5365 34.2474 34C34.2514 22.6667 34.2548 11.3333 34.2583 -5.06639e-07L43.4169 1.55392L43.4167 1.78705ZM33.2569 0.350119L33.2494 33.957C22.1662 31.9527 11.083 29.9486 -0.00010168 27.9437C0.00874533 20.7279 0.0174212 13.512 0.0266858 6.29608C11.1034 4.20214 22.1801 2.10869 33.2569 0.0152859L33.2569 0.350119Z" fill="white"/>
<path d="M63.1428 25.2375V7.28613H70.3164C71.6344 7.28613 72.7338 7.48189 73.6144 7.87341C74.4951 8.26492 75.157 8.80837 75.6003 9.50375C76.0435 10.1933 76.2651 10.988 76.2651 11.8879C76.2651 12.5891 76.1252 13.2056 75.8452 13.7374C75.5653 14.2633 75.1804 14.6957 74.6905 15.0347C74.2064 15.3677 73.6523 15.6044 73.0283 15.7446V15.9199C73.7107 15.9492 74.3493 16.142 74.9442 16.4985C75.5449 16.8549 76.0319 17.3545 76.4051 17.9973C76.7784 18.6343 76.965 19.3939 76.965 20.2763C76.965 21.2288 76.7288 22.079 76.2564 22.827C75.7898 23.5691 75.0987 24.1564 74.1831 24.5888C73.2674 25.0212 72.1389 25.2375 70.7975 25.2375H63.1428ZM66.9308 22.1345H70.0189C71.0745 22.1345 71.8444 21.9329 72.3285 21.5297C72.8125 21.1207 73.0546 20.5772 73.0546 19.8994C73.0546 19.4027 72.935 18.9644 72.6959 18.5846C72.4568 18.2048 72.1156 17.9067 71.6723 17.6905C71.2349 17.4743 70.7129 17.3662 70.1064 17.3662H66.9308V22.1345ZM66.9308 14.798H69.739C70.258 14.798 70.7188 14.7074 71.1212 14.5263C71.5294 14.3393 71.8502 14.0763 72.0835 13.7374C72.3226 13.3985 72.4422 12.9923 72.4422 12.519C72.4422 11.8704 72.2118 11.3474 71.7511 10.95C71.2962 10.5527 70.6488 10.354 69.809 10.354H66.9308V14.798Z" fill="white"/>
<path d="M83.0866 7.28613V25.2375H79.3598V7.28613H83.0866Z" fill="white"/>
<path d="M94.6889 19.505V11.774H98.4156V25.2375H94.8376V22.7919H94.6976C94.3944 23.5808 93.8899 24.2148 93.1842 24.694C92.4843 25.1732 91.6299 25.4128 90.621 25.4128C89.7228 25.4128 88.9326 25.2082 88.2502 24.7992C87.5678 24.3901 87.0342 23.8087 86.6493 23.0549C86.2702 22.3011 86.0777 21.3983 86.0719 20.3464V11.774H89.7986V19.6803C89.8045 20.475 90.0173 21.1032 90.4373 21.5648C90.8572 22.0264 91.42 22.2573 92.1257 22.2573C92.5747 22.2573 92.9947 22.155 93.3854 21.9505C93.7762 21.7401 94.0911 21.4304 94.3302 21.0214C94.5752 20.6123 94.6947 20.1068 94.6889 19.505Z" fill="white"/>
<path d="M107.52 25.5004C106.138 25.5004 104.948 25.2199 103.951 24.6589C102.96 24.0921 102.196 23.2916 101.659 22.2573C101.122 21.2171 100.854 19.987 100.854 18.5671C100.854 17.1822 101.122 15.9667 101.659 14.9207C102.196 13.8747 102.951 13.0595 103.925 12.4752C104.905 11.8908 106.054 11.5987 107.372 11.5987C108.258 11.5987 109.083 11.7418 109.847 12.0282C110.617 12.3086 111.288 12.7323 111.859 13.2991C112.437 13.8659 112.886 14.5789 113.207 15.4379C113.527 16.291 113.688 17.2903 113.688 18.4356V19.4611H102.341V17.1471H110.18C110.18 16.6095 110.063 16.1332 109.83 15.7183C109.597 15.3035 109.273 14.9791 108.859 14.7454C108.451 14.5058 107.975 14.386 107.433 14.386C106.867 14.386 106.366 14.5175 105.928 14.7805C105.497 15.0376 105.158 15.3853 104.913 15.8235C104.668 16.256 104.543 16.738 104.537 17.2698V19.4699C104.537 20.1361 104.66 20.7116 104.905 21.1967C105.155 21.6817 105.508 22.0557 105.963 22.3186C106.418 22.5816 106.958 22.7131 107.582 22.7131C107.996 22.7131 108.375 22.6546 108.719 22.5377C109.063 22.4209 109.357 22.2456 109.602 22.0118C109.847 21.7781 110.034 21.4918 110.162 21.1528L113.609 21.3807C113.434 22.2105 113.075 22.9351 112.533 23.5545C111.997 24.1681 111.302 24.6473 110.451 24.992C109.605 25.331 108.628 25.5004 107.52 25.5004Z" fill="white"/>
<path d="M116.19 25.2375V7.28613H123.363C124.681 7.28613 125.781 7.48189 126.661 7.87341C127.542 8.26492 128.204 8.80837 128.647 9.50375C129.091 10.1933 129.312 10.988 129.312 11.8879C129.312 12.5891 129.172 13.2056 128.892 13.7374C128.612 14.2633 128.227 14.6957 127.737 15.0347C127.253 15.3677 126.699 15.6044 126.075 15.7446V15.9199C126.758 15.9492 127.396 16.142 127.991 16.4985C128.592 16.8549 129.079 17.3545 129.452 17.9973C129.825 18.6343 130.012 19.3939 130.012 20.2763C130.012 21.2288 129.776 22.079 129.303 22.827C128.837 23.5691 128.146 24.1564 127.23 24.5888C126.314 25.0212 125.186 25.2375 123.845 25.2375H116.19ZM119.978 22.1345H123.066C124.122 22.1345 124.891 21.9329 125.375 21.5297C125.86 21.1207 126.102 20.5772 126.102 19.8994C126.102 19.4027 125.982 18.9644 125.743 18.5846C125.504 18.2048 125.163 17.9067 124.719 17.6905C124.282 17.4743 123.76 17.3662 123.153 17.3662H119.978V22.1345ZM119.978 14.798H122.786C123.305 14.798 123.766 14.7074 124.168 14.5263C124.576 14.3393 124.897 14.0763 125.13 13.7374C125.37 13.3985 125.489 12.9923 125.489 12.519C125.489 11.8704 125.259 11.3474 124.798 10.95C124.343 10.5527 123.696 10.354 122.856 10.354H119.978V14.798Z" fill="white"/>
<path d="M138.478 25.5004C137.119 25.5004 135.944 25.2112 134.953 24.6327C133.967 24.0483 133.206 23.236 132.669 22.1959C132.133 21.1499 131.864 19.9374 131.864 18.5583C131.864 17.1675 132.133 15.9521 132.669 14.9119C133.206 13.8659 133.967 13.0537 134.953 12.4752C135.944 11.8908 137.119 11.5987 138.478 11.5987C139.837 11.5987 141.009 11.8908 141.995 12.4752C142.986 13.0537 143.75 13.8659 144.287 14.9119C144.823 15.9521 145.092 17.1675 145.092 18.5583C145.092 19.9374 144.823 21.1499 144.287 22.1959C143.75 23.236 142.986 24.0483 141.995 24.6327C141.009 25.2112 139.837 25.5004 138.478 25.5004ZM138.496 22.6079C139.114 22.6079 139.63 22.4326 140.044 22.082C140.458 21.7255 140.77 21.2405 140.98 20.6269C141.196 20.0133 141.304 19.315 141.304 18.532C141.304 17.749 141.196 17.0507 140.98 16.4371C140.77 15.8235 140.458 15.3385 140.044 14.9821C139.63 14.6256 139.114 14.4474 138.496 14.4474C137.872 14.4474 137.347 14.6256 136.921 14.9821C136.501 15.3385 136.183 15.8235 135.967 16.4371C135.757 17.0507 135.652 17.749 135.652 18.532C135.652 19.315 135.757 20.0133 135.967 20.6269C136.183 21.2405 136.501 21.7255 136.921 22.082C137.347 22.4326 137.872 22.6079 138.496 22.6079Z" fill="white"/>
<path d="M150.148 11.774L152.615 16.4809L155.143 11.774H158.966L155.073 18.5057L159.071 25.2375H155.266L152.615 20.5831L150.008 25.2375H146.159L150.148 18.5057L146.299 11.774H150.148Z" fill="white"/>
</svg>
