<svg width="133" height="34" viewBox="0 0 133 34" fill="none" xmlns="http://www.w3.org/2000/svg">
<path d="M60 15.7979V2H65.4589C66.462 2 67.2986 2.15047 67.9687 2.4514C68.6389 2.75233 69.1426 3.17004 69.4799 3.70452C69.8172 4.23452 69.9859 4.84536 69.9859 5.53705C69.9859 6.07603 69.8793 6.54989 69.6663 6.95861C69.4533 7.36285 69.1604 7.69522 68.7876 7.95573C68.4192 8.21174 67.9976 8.39365 67.5227 8.50144V8.63619C68.042 8.65865 68.5279 8.80686 68.9806 9.08085C69.4378 9.35483 69.8083 9.73885 70.0924 10.2329C70.3764 10.7225 70.5184 11.3064 70.5184 11.9846C70.5184 12.7167 70.3387 13.3702 69.9792 13.9451C69.6242 14.5156 69.0982 14.967 68.4014 15.2993C67.7047 15.6317 66.8459 15.7979 65.8251 15.7979H60ZM62.8826 13.4129H65.2326C66.0359 13.4129 66.6217 13.2579 66.9901 12.948C67.3585 12.6336 67.5427 12.2159 67.5427 11.6949C67.5427 11.3131 67.4517 10.9763 67.2697 10.6843C67.0877 10.3924 66.8281 10.1633 66.4908 9.99711C66.158 9.83093 65.7607 9.74783 65.2992 9.74783H62.8826V13.4129ZM62.8826 7.77382H65.0196C65.4146 7.77382 65.7652 7.7042 66.0714 7.56497C66.3821 7.42124 66.6262 7.21912 66.8037 6.95861C66.9857 6.69811 67.0767 6.38595 67.0767 6.02214C67.0767 5.52358 66.9013 5.12159 66.5507 4.81617C66.2046 4.51075 65.7119 4.35804 65.0728 4.35804H62.8826V7.77382Z" fill="#3136C0"/>
<path d="M75.1769 2V15.7979H72.3409V2H75.1769Z" fill="#3136C0"/>
<path d="M84.006 11.3917V5.44947H86.842V15.7979H84.1192V13.9182H84.0127C83.7819 14.5245 83.398 15.0119 82.861 15.3802C82.3284 15.7485 81.6782 15.9326 80.9104 15.9326C80.2269 15.9326 79.6256 15.7754 79.1063 15.461C78.587 15.1466 78.1809 14.6997 77.888 14.1203C77.5995 13.5409 77.4531 12.847 77.4486 12.0385V5.44947H80.2846V11.5265C80.2891 12.1373 80.4511 12.6201 80.7706 12.975C81.0901 13.3298 81.5184 13.5072 82.0554 13.5072C82.3972 13.5072 82.7167 13.4286 83.0141 13.2714C83.3114 13.1097 83.5511 12.8717 83.7331 12.5573C83.9195 12.2429 84.0105 11.8543 84.006 11.3917Z" fill="#3136C0"/>
<path d="M93.7705 16C92.7187 16 91.8133 15.7844 91.0544 15.3532C90.2999 14.9175 89.7185 14.3022 89.3102 13.5072C88.9019 12.7077 88.6977 11.7623 88.6977 10.6708C88.6977 9.60635 88.9019 8.67212 89.3102 7.86814C89.7185 7.06416 90.2932 6.4376 91.0344 5.98845C91.78 5.5393 92.6543 5.31473 93.6574 5.31473C94.332 5.31473 94.96 5.42477 95.5414 5.64485C96.1272 5.86044 96.6376 6.18608 97.0725 6.62175C97.5119 7.05743 97.8536 7.60539 98.0977 8.26564C98.3418 8.9214 98.4639 9.68944 98.4639 10.5698V11.358H89.8294V9.5794H95.7943C95.7943 9.16619 95.7056 8.80013 95.528 8.48123C95.3505 8.16233 95.1042 7.91306 94.7891 7.7334C94.4784 7.54925 94.1167 7.45717 93.704 7.45717C93.2735 7.45717 92.8918 7.55823 92.5589 7.76035C92.2305 7.95797 91.9731 8.22522 91.7867 8.56208C91.6003 8.89445 91.5049 9.265 91.5004 9.67372V11.3648C91.5004 11.8768 91.5936 12.3192 91.78 12.692C91.9709 13.0648 92.2394 13.3523 92.5855 13.5544C92.9317 13.7565 93.3422 13.8576 93.8171 13.8576C94.1322 13.8576 94.4207 13.8126 94.6826 13.7228C94.9444 13.633 95.1686 13.4982 95.355 13.3186C95.5414 13.1389 95.6834 12.9188 95.781 12.6583L98.404 12.8335C98.2708 13.4713 97.9979 14.0282 97.5851 14.5043C97.1768 14.9759 96.6487 15.3442 96.0007 15.6092C95.3572 15.8697 94.6138 16 93.7705 16Z" fill="#3136C0"/>
<path d="M100.368 15.7979V2H105.827C106.83 2 107.666 2.15047 108.337 2.4514C109.007 2.75233 109.51 3.17004 109.848 3.70452C110.185 4.23452 110.354 4.84536 110.354 5.53705C110.354 6.07603 110.247 6.54989 110.034 6.95861C109.821 7.36285 109.528 7.69522 109.155 7.95573C108.787 8.21174 108.365 8.39365 107.891 8.50144V8.63619C108.41 8.65865 108.896 8.80686 109.348 9.08085C109.806 9.35483 110.176 9.73885 110.46 10.2329C110.744 10.7225 110.886 11.3064 110.886 11.9846C110.886 12.7167 110.707 13.3702 110.347 13.9451C109.992 14.5156 109.466 14.967 108.769 15.2993C108.073 15.6317 107.214 15.7979 106.193 15.7979H100.368ZM103.25 13.4129H105.6C106.404 13.4129 106.99 13.2579 107.358 12.948C107.726 12.6336 107.911 12.2159 107.911 11.6949C107.911 11.3131 107.82 10.9763 107.638 10.6843C107.456 10.3924 107.196 10.1633 106.859 9.99711C106.526 9.83093 106.129 9.74783 105.667 9.74783H103.25V13.4129ZM103.25 7.77382H105.387C105.782 7.77382 106.133 7.7042 106.439 7.56497C106.75 7.42124 106.994 7.21912 107.172 6.95861C107.354 6.69811 107.445 6.38595 107.445 6.02214C107.445 5.52358 107.269 5.12159 106.919 4.81617C106.572 4.51075 106.08 4.35804 105.441 4.35804H103.25V7.77382Z" fill="#3136C0"/>
<path d="M117.329 16C116.295 16 115.4 15.7777 114.646 15.333C113.896 14.8839 113.317 14.2595 112.908 13.4601C112.5 12.6561 112.296 11.7241 112.296 10.6641C112.296 9.59512 112.5 8.66089 112.908 7.86141C113.317 7.05743 113.896 6.43311 114.646 5.98845C115.4 5.5393 116.295 5.31473 117.329 5.31473C118.363 5.31473 119.255 5.5393 120.005 5.98845C120.76 6.43311 121.341 7.05743 121.749 7.86141C122.158 8.66089 122.362 9.59512 122.362 10.6641C122.362 11.7241 122.158 12.6561 121.749 13.4601C121.341 14.2595 120.76 14.8839 120.005 15.333C119.255 15.7777 118.363 16 117.329 16ZM117.342 13.7767C117.813 13.7767 118.205 13.642 118.52 13.3725C118.836 13.0985 119.073 12.7257 119.233 12.2541C119.397 11.7825 119.479 11.2457 119.479 10.6439C119.479 10.042 119.397 9.50529 119.233 9.03369C119.073 8.56208 118.836 8.18928 118.52 7.9153C118.205 7.64132 117.813 7.50433 117.342 7.50433C116.867 7.50433 116.468 7.64132 116.144 7.9153C115.824 8.18928 115.582 8.56208 115.418 9.03369C115.258 9.50529 115.179 10.042 115.179 10.6439C115.179 11.2457 115.258 11.7825 115.418 12.2541C115.582 12.7257 115.824 13.0985 116.144 13.3725C116.468 13.642 116.867 13.7767 117.342 13.7767Z" fill="#3136C0"/>
<path d="M126.21 5.44947L128.087 9.06737L130.011 5.44947H132.92L129.958 10.6237L133 15.7979H130.104L128.087 12.2204L126.103 15.7979H123.174L126.21 10.6237L123.28 5.44947H126.21Z" fill="#3136C0"/>
<path d="M65.8884 22.8625C65.8421 22.4395 65.647 22.1102 65.3031 21.8744C64.9624 21.6387 64.5193 21.5209 63.9736 21.5209C63.5899 21.5209 63.2609 21.5774 62.9864 21.6904C62.7119 21.8034 62.5019 21.9568 62.3564 22.1505C62.2108 22.3443 62.1364 22.5655 62.1331 22.8141C62.1331 23.0207 62.1811 23.2 62.277 23.3517C62.3762 23.5035 62.5101 23.6326 62.6788 23.7392C62.8475 23.8425 63.0343 23.9297 63.2394 24.0007C63.4444 24.0718 63.6511 24.1315 63.8595 24.18L64.8119 24.4124C65.1956 24.4996 65.5643 24.6175 65.9182 24.766C66.2754 24.9146 66.5945 25.1018 66.8756 25.3279C67.16 25.5539 67.3849 25.8268 67.5503 26.1464C67.7156 26.4661 67.7983 26.8407 67.7983 27.2701C67.7983 27.8513 67.6462 28.3631 67.3419 28.8055C67.0377 29.2447 66.5978 29.5886 66.0224 29.8372C65.4502 30.0826 64.7574 30.2053 63.9438 30.2053C63.1534 30.2053 62.4672 30.0858 61.8851 29.8469C61.3063 29.6079 60.8533 29.2592 60.5258 28.8007C60.2017 28.3422 60.0265 27.7835 60 27.1248H61.8107C61.8371 27.4703 61.9463 27.7577 62.1381 27.987C62.3299 28.2162 62.5796 28.3874 62.8872 28.5004C63.198 28.6134 63.5453 28.6699 63.9289 28.6699C64.3291 28.6699 64.6797 28.6118 64.9806 28.4955C65.2849 28.3761 65.523 28.2114 65.695 28.0015C65.8669 27.7884 65.9546 27.5397 65.9579 27.2556C65.9546 26.9973 65.8769 26.7842 65.7247 26.6162C65.5726 26.4451 65.3593 26.303 65.0848 26.19C64.8136 26.0738 64.4961 25.9704 64.1323 25.88L62.9765 25.5894C62.1397 25.3795 61.4783 25.0615 60.9922 24.6352C60.5093 24.2058 60.2679 23.6359 60.2679 22.9255C60.2679 22.341 60.4299 21.8292 60.754 21.3901C61.0814 20.9509 61.5263 20.6103 62.0885 20.3681C62.6507 20.1227 63.2873 20 63.9984 20C64.7193 20 65.351 20.1227 65.8934 20.3681C66.4391 20.6103 66.8674 20.9477 67.1782 21.3804C67.4891 21.8099 67.6495 22.3039 67.6594 22.8625H65.8884Z" fill="#3136C0"/>
<path d="M73.1646 22.6155V23.9717H68.7843V22.6155H73.1646ZM69.8657 20.8331H71.6615V27.8174C71.6615 28.0532 71.6979 28.234 71.7707 28.3599C71.8467 28.4826 71.9459 28.5666 72.0683 28.6118C72.1907 28.657 72.3263 28.6796 72.4751 28.6796C72.5875 28.6796 72.6901 28.6715 72.7827 28.6554C72.8786 28.6392 72.9513 28.6247 73.0009 28.6118L73.3035 29.9825C73.2076 30.0148 73.0704 30.0503 72.8918 30.089C72.7165 30.1278 72.5015 30.1504 72.2469 30.1569C71.7971 30.1698 71.392 30.1036 71.0315 29.9583C70.671 29.8097 70.385 29.5805 70.1733 29.2705C69.9649 28.9605 69.8624 28.573 69.8657 28.108V20.8331Z" fill="#3136C0"/>
<path d="M77.9084 30.2004C77.1643 30.2004 76.5194 30.0406 75.9737 29.7209C75.428 29.4013 75.0047 28.954 74.7037 28.3793C74.4061 27.8045 74.2572 27.1329 74.2572 26.3644C74.2572 25.5959 74.4061 24.9226 74.7037 24.3446C75.0047 23.7666 75.428 23.3178 75.9737 22.9981C76.5194 22.6785 77.1643 22.5186 77.9084 22.5186C78.6525 22.5186 79.2974 22.6785 79.8431 22.9981C80.3888 23.3178 80.8104 23.7666 81.1081 24.3446C81.409 24.9226 81.5595 25.5959 81.5595 26.3644C81.5595 27.1329 81.409 27.8045 81.1081 28.3793C80.8104 28.954 80.3888 29.4013 79.8431 29.7209C79.2974 30.0406 78.6525 30.2004 77.9084 30.2004ZM77.9183 28.7958C78.3218 28.7958 78.6591 28.6877 78.9303 28.4713C79.2015 28.2517 79.4032 27.9579 79.5355 27.5898C79.6711 27.2217 79.7389 26.8116 79.7389 26.3595C79.7389 25.9042 79.6711 25.4925 79.5355 25.1244C79.4032 24.7531 79.2015 24.4577 78.9303 24.2381C78.6591 24.0185 78.3218 23.9087 77.9183 23.9087C77.5049 23.9087 77.1609 24.0185 76.8864 24.2381C76.6153 24.4577 76.4119 24.7531 76.2763 25.1244C76.144 25.4925 76.0778 25.9042 76.0778 26.3595C76.0778 26.8116 76.144 27.2217 76.2763 27.5898C76.4119 27.9579 76.6153 28.2517 76.8864 28.4713C77.1609 28.6877 77.5049 28.7958 77.9183 28.7958Z" fill="#3136C0"/>
<path d="M83.0837 30.0551V22.6155H84.8249V23.8554H84.9043C85.0432 23.426 85.2813 23.095 85.6186 22.8625C85.9593 22.6268 86.3479 22.5089 86.7844 22.5089C86.8836 22.5089 86.9944 22.5138 87.1168 22.5235C87.2425 22.5299 87.3466 22.5412 87.4293 22.5574V24.1703C87.3533 24.1444 87.2325 24.1218 87.0672 24.1025C86.9051 24.0799 86.748 24.0686 86.5959 24.0686C86.2685 24.0686 85.9742 24.138 85.7129 24.2768C85.4549 24.4124 85.2515 24.6013 85.1027 24.8435C84.9539 25.0857 84.8795 25.365 84.8795 25.6814V30.0551H83.0837Z" fill="#3136C0"/>
<path d="M90.6786 30.2053C90.1958 30.2053 89.7609 30.1213 89.3739 29.9534C88.9903 29.7823 88.686 29.5304 88.4612 29.1978C88.2396 28.8653 88.1288 28.4552 88.1288 27.9676C88.1288 27.5478 88.2082 27.2007 88.3669 26.9262C88.5256 26.6518 88.7423 26.4322 89.0168 26.2675C89.2913 26.1028 89.6005 25.9785 89.9444 25.8946C90.2917 25.8074 90.6505 25.7444 91.0209 25.7057C91.4674 25.6605 91.8295 25.6201 92.1073 25.5846C92.3851 25.5458 92.5869 25.4877 92.7125 25.4102C92.8415 25.3295 92.906 25.2052 92.906 25.0373V25.0082C92.906 24.6433 92.7952 24.3608 92.5736 24.1606C92.3521 23.9604 92.0329 23.8603 91.6162 23.8603C91.1764 23.8603 90.8274 23.9539 90.5695 24.1412C90.3148 24.3285 90.1429 24.5497 90.0536 24.8048L88.3768 24.5723C88.5091 24.1202 88.7274 23.7424 89.0316 23.4389C89.3359 23.1321 89.708 22.9029 90.1478 22.7511C90.5877 22.5961 91.0738 22.5186 91.6063 22.5186C91.9734 22.5186 92.3388 22.5606 92.7026 22.6446C93.0664 22.7285 93.3988 22.8674 93.6997 23.0611C94.0007 23.2516 94.2421 23.5115 94.424 23.8409C94.6092 24.1703 94.7018 24.582 94.7018 25.076V30.0551H92.9755V29.0332H92.9159C92.8068 29.2398 92.653 29.4336 92.4546 29.6144C92.2595 29.792 92.0131 29.9357 91.7154 30.0455C91.4211 30.152 91.0755 30.2053 90.6786 30.2053ZM91.1449 28.9169C91.5054 28.9169 91.8179 28.8475 92.0825 28.7086C92.3471 28.5666 92.5505 28.3793 92.6927 28.1468C92.8382 27.9143 92.911 27.6608 92.911 27.3864V26.5097C92.8547 26.5549 92.7588 26.5969 92.6232 26.6356C92.491 26.6744 92.3421 26.7083 92.1768 26.7373C92.0114 26.7664 91.8477 26.7922 91.6857 26.8148C91.5236 26.8374 91.3831 26.8568 91.264 26.873C90.9961 26.9085 90.7563 26.9666 90.5447 27.0473C90.333 27.128 90.166 27.2411 90.0436 27.3864C89.9213 27.5284 89.8601 27.7125 89.8601 27.9385C89.8601 28.2614 89.9808 28.5052 90.2222 28.6699C90.4637 28.8346 90.7712 28.9169 91.1449 28.9169Z" fill="#3136C0"/>
<path d="M99.8213 33C99.1764 33 98.6225 32.9144 98.1595 32.7433C97.6965 32.5754 97.3244 32.3494 97.0433 32.0652C96.7622 31.781 96.5671 31.4662 96.4579 31.1207L98.0751 30.7381C98.1479 30.8834 98.2537 31.0271 98.3926 31.1692C98.5315 31.3145 98.7184 31.4339 98.9532 31.5276C99.1913 31.6244 99.4906 31.6729 99.8511 31.6729C100.36 31.6729 100.782 31.5518 101.116 31.3096C101.45 31.0707 101.617 30.6767 101.617 30.1278V28.7183H101.528C101.435 28.8992 101.3 29.0848 101.121 29.2753C100.946 29.4658 100.713 29.6257 100.422 29.7548C100.134 29.884 99.7717 29.9486 99.3352 29.9486C98.7498 29.9486 98.219 29.8146 97.7428 29.5466C97.2698 29.2753 96.8928 28.8717 96.6117 28.3357C96.3339 27.7964 96.195 27.1216 96.195 26.3111C96.195 25.4942 96.3339 24.8048 96.6117 24.2429C96.8928 23.6778 97.2715 23.25 97.7477 22.9594C98.2239 22.6655 98.7548 22.5186 99.3401 22.5186C99.7866 22.5186 100.154 22.5929 100.441 22.7414C100.732 22.8867 100.964 23.0627 101.136 23.2694C101.308 23.4728 101.439 23.6649 101.528 23.8458H101.627V22.6155H103.398V30.1762C103.398 30.8123 103.243 31.3387 102.932 31.7552C102.621 32.1718 102.196 32.4834 101.657 32.69C101.118 32.8967 100.506 33 99.8213 33ZM99.8362 28.573C100.217 28.573 100.541 28.4826 100.809 28.3018C101.076 28.121 101.28 27.861 101.419 27.522C101.558 27.1829 101.627 26.7761 101.627 26.3014C101.627 25.8332 101.558 25.4231 101.419 25.0712C101.283 24.7192 101.081 24.4463 100.813 24.2526C100.549 24.0556 100.223 23.9572 99.8362 23.9572C99.436 23.9572 99.102 24.0589 98.8341 24.2623C98.5662 24.4657 98.3645 24.745 98.2289 25.1002C98.0933 25.4522 98.0255 25.8526 98.0255 26.3014C98.0255 26.7567 98.0933 27.1555 98.2289 27.4978C98.3678 27.8368 98.5712 28.1016 98.8391 28.2921C99.1103 28.4794 99.4426 28.573 99.8362 28.573Z" fill="#3136C0"/>
<path d="M108.612 30.2004C107.848 30.2004 107.188 30.0455 106.632 29.7355C106.08 29.4223 105.655 28.9799 105.358 28.4083C105.06 27.8336 104.911 27.1571 104.911 26.3789C104.911 25.6136 105.06 24.942 105.358 24.364C105.658 23.7828 106.078 23.3307 106.618 23.0078C107.157 22.6817 107.79 22.5186 108.518 22.5186C108.987 22.5186 109.43 22.5929 109.847 22.7414C110.267 22.8867 110.637 23.1128 110.958 23.4195C111.282 23.7263 111.537 24.117 111.722 24.5917C111.907 25.0631 112 25.6249 112 26.2772V26.8148H105.754V25.633H110.279C110.275 25.2972 110.201 24.9985 110.055 24.737C109.91 24.4722 109.706 24.2639 109.445 24.1121C109.187 23.9604 108.886 23.8845 108.542 23.8845C108.175 23.8845 107.853 23.9717 107.575 24.1461C107.297 24.3172 107.081 24.5432 106.925 24.8241C106.773 25.1018 106.695 25.407 106.692 25.7396V26.7712C106.692 27.2039 106.773 27.5753 106.935 27.8852C107.097 28.192 107.324 28.4277 107.615 28.5924C107.906 28.7539 108.246 28.8346 108.637 28.8346C108.898 28.8346 109.134 28.7991 109.346 28.728C109.558 28.6538 109.741 28.5456 109.897 28.4035C110.052 28.2614 110.169 28.0854 110.249 27.8756L111.926 28.0596C111.82 28.4923 111.618 28.8701 111.32 29.193C111.026 29.5127 110.649 29.7613 110.189 29.9389C109.73 30.1133 109.204 30.2004 108.612 30.2004Z" fill="#3136C0"/>
<path d="M9.81323 26.2124L11.6338 26.6952V5.36328L9.81323 5.63187V26.2124Z" fill="#393ED0"/>
<path d="M7.9668 25.7242L9.4414 26.1147V5.6875L7.9668 5.90475V25.7242Z" fill="#393ED0"/>
<path d="M4.62915 24.8387L5.79277 25.1475V6.22461L4.62915 6.39647V24.8387Z" fill="#393ED0"/>
<path d="M53.198 5.0403L46.3867 4.09766V5.37213L53.198 6.15035V5.0403Z" fill="#393ED0"/>
<path d="M12.0061 26.7928L13.8148 27.2727V5.04199L12.0061 5.30834V26.7928Z" fill="#393ED0"/>
<path d="M0 24.8518L33.6533 33.8899V0L0 5.89248V24.8518ZM0.263376 6.66549L0.421848 6.64168L5.79278 5.84932V5.81882H5.99589L7.594 5.58297L7.966 5.52792L9.44061 5.31067L9.81261 5.25561L11.6324 4.98703L12.0044 4.93197L13.8138 4.66488L14.1858 4.60982L16.6395 4.24749L17.0115 4.19244L19.2644 3.85987L19.6364 3.80481L21.6013 3.51465L21.9733 3.4596L24.1599 3.1367L24.5319 3.08165L26.874 2.73643L27.246 2.68137L29.4654 2.35401L29.8374 2.29896L31.5389 2.04823V32.3513L31.3053 32.2888L21.8342 29.7801L21.6005 29.7183L0.263376 24.0676V6.66549Z" fill="#393ED0"/>
<path d="M14.1868 27.3711L16.6405 28.0206V4.62402L14.1868 4.98635V27.3711Z" fill="#393ED0"/>
<path d="M21.6021 3.89258L19.6372 4.18274V28.8151L21.6021 29.3351V3.89258Z" fill="#393ED0"/>
<path d="M17.0122 28.1207L19.265 28.7166V4.23828L17.0122 4.5701V28.1207Z" fill="#393ED0"/>
<path d="M6.16479 25.2467L7.59476 25.6254V5.95996L6.16479 6.17126V25.2467Z" fill="#393ED0"/>
<path d="M29.4667 2.73242L27.2473 3.05978V30.8303L29.4667 31.4188V2.73242Z" fill="#393ED0"/>
<path d="M26.8756 3.11426L24.5327 3.45947V30.111L26.8756 30.7315V3.11426Z" fill="#393ED0"/>
<path d="M31.1684 2.48145L29.8389 2.67786V31.5175L31.1684 31.8702V2.48145Z" fill="#393ED0"/>
<path d="M0.635498 23.7824L1.31031 23.961V6.8877L0.635498 6.98665V23.7824Z" fill="#393ED0"/>
<path d="M24.1605 3.51465L21.9739 3.8368V29.4334L24.1605 30.0122V3.51465Z" fill="#393ED0"/>
<path d="M1.68213 24.0587L2.56377 24.2916V6.70117L1.68213 6.83137V24.0587Z" fill="#393ED0"/>
<path d="M2.93579 24.3915L4.25713 24.7419V6.45215L2.93579 6.64708V24.3915Z" fill="#393ED0"/>
<path d="M34.0251 33.9995L53.9286 29.2357V3.61235L34.0251 0.000976562V33.9995ZM35.4432 2.20694L53.5693 4.7157V20.792V21.1663V28.636L45.3853 30.5444L45.0133 30.6314L44.4612 30.7602L44.0892 30.8465L35.4432 32.8634V2.20694Z" fill="#393ED0"/>
<path d="M44.0899 12.057L35.8152 11.9707V13.3754H44.0899V12.057Z" fill="#393ED0"/>
<path d="M44.0899 20.665L35.8152 21.1479V22.5288L44.0899 21.72V20.665Z" fill="#393ED0"/>
<path d="M44.0899 13.7471H35.8152V20.7741L44.0899 20.2905V13.7471Z" fill="#393ED0"/>
<path d="M44.0899 5.48371L35.8152 4.53809V11.5986L44.0899 11.6849V5.48371Z" fill="#393ED0"/>
<path d="M44.0899 22.0947L35.8152 22.9027V29.7371L44.0899 28.1553V22.0947Z" fill="#393ED0"/>
<path d="M53.198 6.52506L46.3867 5.74609V11.7085L53.198 11.7799V6.52506Z" fill="#393ED0"/>
<path d="M44.0899 28.5332L35.8152 30.1142V32.396L44.0899 30.4661V28.5332Z" fill="#393ED0"/>
<path d="M44.0899 3.78076L35.8152 2.63574V4.16466L44.0899 5.11028V3.78076Z" fill="#393ED0"/>
<path d="M53.198 13.7471H46.3867V20.1559L53.198 19.7586V13.7471Z" fill="#393ED0"/>
<path d="M53.198 20.1328L46.3867 20.5301V21.4951L53.198 20.8299V20.1328Z" fill="#393ED0"/>
<path d="M53.198 12.1525L46.3867 12.0811V13.3756H53.198V12.1525Z" fill="#393ED0"/>
<path d="M45.0142 28.3572V27.9785V22.0035V21.6292V20.6115V20.238V13.7481V13.3761V12.0674V11.6954V5.5901V5.21587V3.90866L44.4622 3.83203V5.15263V5.52686V11.6894V12.0614V13.3761V13.7481V20.27V20.6434V21.6836V22.0578V28.0849V28.4629V30.3802L45.0142 30.2515V28.3572Z" fill="#393ED0"/>
<path d="M46.0147 28.1652V27.7873V21.906V21.5317V20.5526V20.1792V13.748V13.376V12.0777V11.7057V5.70464V5.33041V4.04701L45.386 3.95996V5.25824V5.63247V11.699V12.071V13.376V13.748V20.2164V20.5891V21.5927V21.967V27.9078V28.2858V30.1644L46.0147 30.0171V28.1652Z" fill="#393ED0"/>
<path d="M53.198 26.792L46.3867 28.094V29.9302L53.198 28.3417V26.792Z" fill="#393ED0"/>
<path d="M53.198 21.2041L46.3867 21.8692V27.7163L53.198 26.4151V21.2041Z" fill="#393ED0"/>
</svg>
