<svg width="14" height="14" viewBox="0 0 14 14" fill="none" xmlns="http://www.w3.org/2000/svg">
<path d="M7 0C3.14013 0 0 3.14013 0 7C0 10.8599 3.14013 14 7 14C10.8599 14 14 10.8599 14 7C14 3.14013 10.8599 0 7 0ZM6.99357 11.0291C6.54634 11.0291 6.18387 10.6666 6.18387 10.2194C6.18387 9.77215 6.54634 9.40968 6.99357 9.40968C7.44081 9.40968 7.80328 9.77215 7.80328 10.2194C7.80328 10.6666 7.44081 11.0291 6.99357 11.0291ZM8.73294 6.96236C8.2727 7.30494 7.78079 7.58326 7.68455 8.2141V8.62109H6.24033V8.13974C6.30428 7.20855 6.74295 6.79161 7.17091 6.45989C7.58815 6.12848 7.95185 5.8826 7.95185 5.30455C7.95185 4.65183 7.60973 4.34168 7.04284 4.34168C6.27276 4.34168 5.95176 4.97283 5.94074 5.7325H4.36815C4.40044 4.20275 5.40599 3.0901 6.96772 3.0901C8.98968 3.0901 9.63185 4.33113 9.63185 5.15445C9.63185 6.19244 9.19318 6.60968 8.73294 6.96236Z" fill="#323EAF"/>
</svg>
